<svg width="85" height="85" fill="none" xmlns="http://www.w3.org/2000/svg"><path d="M73.338 62.3334c.45-2.3885.4384-4.8409-.034-7.225l6.4884-15.6585c.0007-.0103.0007-.0207 0-.0311 1.0514-2.8786 2.5923-5.5539 4.5546-7.9079.4882-.5157.6846-1.2422.5227-1.9337L82.2092 18.088c-.0316-.1201-.0793-.2354-.1417-.3428-.0113-.0213-.0155-.0468-.0269-.0666-.0113-.0198-.0609-.068-.0892-.1048-.058-.0849-.125-.1633-.1998-.2338-.0492-.0346-.1008-.0659-.1544-.0935-.0691-.0508-.1426-.0954-.2196-.1331-.1068-.0404-.2181-.0675-.3315-.0808-.0326 0-.0609-.0212-.0935-.0241-.2715-.0181-.5425.0424-.7806.1743-.0212.0113-.0467.0156-.068.0283h-.0141l-10.0031 6.2433c-.6058.3751-.9818 1.0302-1.0002 1.7425-.2779 3.0588-1.0836 6.0463-2.3814 8.83v.0156l-3.2427 7.8384c-1.5916-.846-3.2955-1.4614-5.0604-1.8275.6681-4.6113.9137-9.274.7339-13.93 2.6371-3.1641 3.9027-7.2496 3.5161-11.3504C61.7667 6.51669 54.3051.553942 53.9864.303192c-.4791-.377269-1.1458-.405642-1.6552-.070437-.5094.335205-.7472.958765-.5902 1.548025.7295 2.73983.0977 5.63125-5.2913 11.57702-2.4212 2.3379-3.1887 5.9076-1.9422 9.0341.4765 1.1958 1.1593 2.2986 2.0173 3.2583-.3428 2.1887-.612 4.2613-.7976 6.2801-.3195 3.3389-.4019 6.6964-.2465 10.047-1.2638.6852-2.447 1.5096-3.5275 2.4579l-6.8708-29.3817c0-.0297-.0283-.051-.0369-.0779-.023-.0945-.0563-.1861-.0991-.2734L27.9282 1.74111C27.2259.443829 25.7421-.222804 24.3057.1136c-1.4363.336405-2.4697 1.59259-2.523 3.06684L21.25 17.9067c.0004.1063.0123.2122.0355.3159v.0638l7.0096 29.9157c-1.1057.0488-2.2034.2126-3.2753.4888l-7.7109-18.6221c-.6183-1.4236-2.2583-2.0952-3.6975-1.5144l-11.78527 4.879c-1.442353.602-2.127802 2.2558-1.534248 3.7017L10.7497 62.3631C4.62052 62.6849-.137124 67.8301.0210757 73.9657.179275 80.1013 5.19574 84.9945 11.3334 85h62.3333c4.049-.0587 7.7591-2.2731 9.7328-5.809 1.9737-3.5359 1.911-7.8561-.1643-11.3333-2.0754-3.4772-5.8481-5.583-9.8972-5.5243zm-1.4435-36.669l5.9386-3.706-2.1023 5.0773c-.2997.7229.0435 1.5519.7664 1.8516.723.2996 1.5519-.0435 1.8516-.7664l2.1023-5.0774 1.5739 6.8184c-1.6839 2.0544-3.0672 4.3378-4.1083 6.7816-1.477.6847-3.1731.7202-4.6774.098-1.5044-.6222-2.6799-1.8454-3.2418-3.3733.995-2.4648 1.6337-5.0588 1.897-7.7038zm-3.2584 11.1222c.9372 1.1458 2.1535 2.0313 3.5318 2.5713 1.0956.4712 2.274.7197 3.4666.731.2869-.0011.5735-.0186.8585-.0525l-4.5206 10.9084c-1.3536-2.9845-3.4477-5.5735-6.0832-7.5211l2.7469-6.6371zM49.2278 26.6688l7.1173.4349c.0439 1.3232.0284 2.6917-.0156 4.0814-2.371.1694-4.7538.0543-7.0975-.3428-.1785-.0255-.3527-.0454-.5298-.0694.1417-1.3345.3145-2.686.5228-4.1041h.0028zm-.6758-11.4084c3.7613-4.1495 5.7106-7.34121 6.164-10.34171 2.7036 2.78169 4.4882 6.32621 5.1127 10.15471.2975 3.3328-.733 6.6483-2.8673 9.2253-2.7984-.17-5.5661-.34-8.3031-.51-1.1761-1.0994-1.8526-2.6311-1.8732-4.2409-.0206-1.6098.6166-3.1583 1.7641-4.2874h.0028zm-.1076 18.3359l.4108.0538c1.8255.2823 3.6682.439 5.5151.4689.5865 0 1.2042-.0467 1.8232-.0949-.1289 1.8233-.34 3.7273-.6077 5.695-.3499-.0184-.6928-.0524-1.0441-.0524-2.1388.0038-4.2617.3693-6.2787 1.0809-.0653-2.3852-.0057-4.7723.1785-7.1513h.0029zM37.4865 50.1628l-4.0531-17.2649c-.1895-.7491-.9442-1.2081-1.6965-1.0319-.7522.1761-1.2246.9226-1.0618 1.6779l3.6423 15.5394c-1.0014-.3582-2.036-.6158-3.0884-.7693l-6.2177-26.5341c.871.3965 1.8168.6023 2.7738.6035.0893 0 .1842-.0128.2749-.017l1.0015 4.2769c.108.5006.4777.904.967 1.055.4893.1511 1.0221.0263 1.3934-.3263.3714-.3527.5235-.8783.3979-1.3747l-1.003-4.2798c.9612-.4255 1.8089-1.0709 2.4749-1.8841l6.3212 27.0285c-.8209 1.0239-1.5335 2.1301-2.1264 3.3009zm-8.6559-30.7417c-1.8118.3514-3.6616-.3893-4.7302-1.8941l.1799-4.9895c.4929.0921.9931.1395 1.4946.1417.4843.002.9673-.0517 1.4393-.1601.9557-.251 1.8497-.6955 2.6265-1.3062l2.3857 4.403c-.2843 1.8269-1.6133 3.3172-3.3958 3.808v-.0028zM24.9504 2.87161c.193-.0447.3921.04446.4873.21817l3.0373 5.61708c-.5479.49568-1.2021.85916-1.9125 1.0625-.726.13326-1.4729.09787-2.183-.10342l.2309-6.3835c.0077-.19795.147-.36625.34-.41083zM14.698 31.1667l1.0823 2.6152-5.2417 2.1703c-.62138.2609-.97291.9236-.84053 1.5844.13238.6609.71203 1.137 1.38593 1.1384.1862-.0004.3705-.0369.5426-.1076l5.2417-2.1718 1.0837 2.618-2.6222 1.0866c-.625.2586-.9799.923-.8476 1.5863.1324.6633.7152 1.1405 1.3916 1.1394.1856-.0007.3694-.0373.5412-.1077l2.6222-1.0866 1.0838 2.618-5.246 2.1746c-.6249.2586-.9799.923-.8475 1.5863.1324.6633.7152 1.1405 1.3915 1.1394.1857-.0005.3695-.0371.5412-.1077l5.2417-2.1703 1.1461 2.7667c-4.6164 2.1071-8.0015 6.2273-9.173 11.1648L2.90705 36.0457l11.79095-4.879zm58.9687 51H11.3334c-4.69444 0-8.50002-3.8056-8.50002-8.5s3.80558-8.5 8.50002-8.5c.8208-.0027 1.6376.1156 2.4239.3513.4248.1283.8851.0502 1.2438-.2111.3586-.2612.5742-.6755.5823-1.1191.1008-5.0489 3.0195-9.6165 7.5588-11.8291 4.5394-2.2127 9.9353-1.6979 13.9745 1.333.3569.2657.818.3482 1.2449.2229.4269-.1253.7702-.444.9269-.8604 2.7677-7.3763 10.4173-11.7152 18.1686-10.3054 7.7513 1.4099 13.3831 8.1644 13.3763 16.0429.0027 1.6201-.2384 3.2315-.7154 4.7798-.1489.4818-.0306 1.0063.3108 1.3774.3413.3711.8542.5328 1.3467.4246.6211-.1367 1.2552-.206 1.8912-.2068 4.6944 0 8.5 3.8056 8.5 8.5s-3.8056 8.5-8.5 8.5z" fill="#F0B6B9"/></svg>