<svg width="92" height="92" fill="none" xmlns="http://www.w3.org/2000/svg"><path d="M83.1723 12.4466C79.3789 9.05517 74.3457 7.1875 69 7.1875c-11.097 0-20.125 8.1398-20.125 18.1441v16.4752c.0044 1.4572.3841 2.8887 1.1025 4.1564.7184 1.2678 1.7512 2.3292 2.999 3.0818-.8319.6726-1.5029 1.5228-1.9639 2.4883-.4609.9655-.7001 2.0218-.7001 3.0917v4.4056c-.4768-.061-.9569-.0921-1.4375-.0931h-1.4375v-2.875c0-.3813-.1515-.7469-.421-1.0165-.2696-.2696-.6353-.421-1.0165-.421-.3813 0-.7469.1514-1.0165.421-.2696.2696-.421.6352-.421 1.0165v2.875H43.125c-.4807.001-.9608.0321-1.4375.0931V54.625c-.0022-1.9056-.7601-3.7325-2.1075-5.08-1.3475-1.3474-3.1744-2.1054-5.08-2.1075h-2.8849c2.8183-2.1114 4.7652-5.1824 5.4724-8.6322.0958.0047.1917.0071.2875.0072.8703.0005 1.7293-.1966 2.5123-.5766.7829-.3799 1.4694-.9327 2.0075-1.6166.5382-.6839.914-1.4812 1.0991-2.3315.1851-.8504.1746-1.7317-.0306-2.5775.1068-.5569.161-1.1228.1617-1.6899V26.008c0-5.0469-2.1067-9.7862-5.932-13.3451C33.3958 9.1319 28.3547 7.1875 23 7.1875c-11.097 0-20.12501 8.4428-20.12501 18.8205v4.0124c.00072.5671.05487 1.133.16172 1.6899-.20523.8458-.21569 1.7271-.03061 2.5775.18508.8503.56088 1.6476 1.09903 2.3315.53815.6839 1.22461 1.2367 2.00758 1.6166.78297.38 1.642.5771 2.51228.5766.09583 0 .19166-.0024.2875-.0072.70719 3.4498 2.65411 6.5208 5.47241 8.6322H11.5c-1.9056.0021-3.73252.7601-5.07998 2.1075-1.34745 1.3475-2.10539 3.1744-2.10753 5.08V74.75c0 .3812.15145.7469.42103 1.0165.26959.2695.63522.421 1.01647.421H32.8289c1.118 2.5634 2.9596 4.7448 5.2992 6.2768S43.2034 84.8124 46 84.8124c2.7965 0 5.5323-.8161 7.8719-2.3481 2.3395-1.532 4.1812-3.7134 5.2992-6.2768H86.25c.3812 0 .7469-.1515 1.0165-.421.2695-.2696.421-.6353.421-1.0165V54.625c0-1.0699-.2392-2.1262-.7001-3.0917-.461-.9655-1.132-1.8157-1.964-2.4883 1.2478-.7526 2.2807-1.814 2.9991-3.0818.7184-1.2677 1.0981-2.6992 1.1025-4.1564V25.3316c0-4.8774-2.114-9.4535-5.9527-12.885zM51.75 41.8068v-3.767c.8732.5071 1.8652.7737 2.875.7727.0963 0 .1923-.0031.2875-.0077.7071 3.4499 2.654 6.5211 5.4724 8.6327H57.5c-3.1706 0-5.75-2.5261-5.75-5.6307zm0-8.7443c.0009-.7622.3041-1.493.8431-2.0319.5389-.539 1.2697-.8422 2.0319-.8431v5.75c-.7622-.0009-1.493-.3041-2.0319-.8431-.539-.5389-.8422-1.2697-.8431-2.0319zM69 47.4375c-3.049-.0034-5.972-1.2161-8.128-3.3721-2.1559-2.1559-3.3686-5.079-3.372-8.1279v-5.7859c6.2891-.3149 10.1356-2.6635 12.2953-4.657.6052-.5579 1.1627-1.1654 1.6666-1.8163 1.0981 2.356 3.0084 4.2375 5.3809 5.2995 1.1626.5294 2.3936.8932 3.6572 1.0807v5.879c-.0034 3.0489-1.2161 5.972-3.3721 8.1279-2.1559 2.156-5.079 3.3687-8.1279 3.3721zm1.4375 2.875v2.875h-2.875v-2.875h2.875zM37.375 35.9375v-5.75c.7625 0 1.4938.3029 2.0329.8421.5392.5391.8421 1.2704.8421 2.0329 0 .7625-.3029 1.4938-.8421 2.0329-.5391.5392-1.2704.8421-2.0329.8421zm-28.75001 0c-.7625 0-1.49377-.3029-2.03293-.8421-.53917-.5391-.84207-1.2704-.84207-2.0329 0-.7625.3029-1.4938.84207-2.0329.53916-.5392 1.27043-.8421 2.03293-.8421v5.75zm.96474-8.5438c-1.32149-.2247-2.67995.0202-3.83974.6924V26.008c0-8.7923 7.73821-15.9455 17.25001-15.9455 4.6266 0 8.972 1.6711 12.2351 4.7057 3.2338 3.0086 5.0149 7.0002 5.0149 11.2398v2.0781c-1.063-.6181-2.297-.8765-3.5187-.7368l-5.3478-8.0219c-.1241-.1861-.2899-.3406-.4842-.4513-.1943-.1107-.4117-.1745-.6351-.1865-.2233-.0119-.4463.0285-.6513.1179-.2049.0894-.3862.2254-.5294.3971-.0678.0813-6.897 8.1079-19.021 8.1079-.16105.0003-.32088.0277-.47277.0812zM11.5 35.9375v-5.7874c6.8823-.3129 13.4305-3.0572 18.4796-7.7445L34.5 29.1852v6.7523c0 3.05-1.2116 5.9751-3.3683 8.1317C28.975 46.2259 26.05 47.4375 23 47.4375c-3.05 0-5.9751-1.2116-8.1317-3.3683-2.1567-2.1566-3.3683-5.0817-3.3683-8.1317zm12.9375 14.375v2.875h-2.875v-2.875h2.875zm7.1875 23c-.3813 0-.7469-.1515-1.0165-.421-.2696-.2696-.421-.6353-.421-1.0165 0-.3813.1514-.7469.421-1.0165.2696-.2696.6352-.421 1.0165-.421-.0001.9558.095 1.9092.2841 2.8461-.0935.019-.1887.0287-.2841.0289zm.3594-5.7333c-.1194-.0101-.2392-.0167-.3594-.0167-.69-.0002-1.3699.1651-1.9827.4823-.6128.3171-1.1406.7766-1.5389 1.34-.3983.5634-.6556 1.2142-.7502 1.8976-.0946.6835-.0238 1.3797.2065 2.0301H7.18749V54.625c.00133-1.1433.45611-2.2395 1.26457-3.0479.80846-.8085 1.90454-1.2633 3.04794-1.2646h7.1875v4.3125c0 .3812.1514.7469.421 1.0165.2696.2695.6352.421 1.0165.421h5.75c.3812 0 .7469-.1515 1.0165-.421.2695-.2696.421-.6353.421-1.0165v-4.3125H34.5c1.1433.0013 2.2395.4561 3.0479 1.2646.8085.8084 1.2633 1.9046 1.2646 3.0479v4.4358l-1.9457-1.9459c-.1335-.1335-.292-.2394-.4664-.3116-.1744-.0723-.3614-.1095-.5501-.1095-.1888 0-.3758.0372-.5502.1095-.1744.0722-.3329.1781-.4664.3116-.1335.1335-.2394.292-.3117.4664-.0722.1745-.1094.3614-.1094.5502 0 .1888.0372.3757.1094.5502.0723.1744.1782.3329.3117.4664l1.8019 1.8019c-2.3005 1.5752-3.9527 3.9301-4.6512 6.6292zM46 81.9375c-3.049-.0034-5.972-1.2161-8.128-3.3721-2.1559-2.1559-3.3686-5.079-3.372-8.1279.0025-2.2867.912-4.4791 2.529-6.096 1.6169-1.617 3.8093-2.5265 6.096-2.529h5.75c2.2867.0025 4.479.912 6.096 2.529 1.617 1.6169 2.5265 3.8093 2.529 6.096-.0034 3.0489-1.2161 5.972-3.3721 8.1279-2.1559 2.156-5.079 3.3687-8.1279 3.3721zm14.375-8.625c-.0954-.0002-.1906-.0099-.2841-.0289.189-.9369.2842-1.8903.2841-2.8461.3812 0 .7469.1514 1.0165.421.2695.2696.421.6352.421 1.0165 0 .3812-.1515.7469-.421 1.0165-.2696.2695-.6353.421-1.0165.421zm24.4375 0H64.4402c.2303-.6504.3012-1.3466.2066-2.0301-.0947-.6834-.3519-1.3342-.7502-1.8976-.3984-.5634-.9261-1.0229-1.5389-1.34-.6128-.3172-1.2927-.4825-1.9827-.4823-.1206 0-.2404.0066-.3594.0167-.6931-2.6782-2.3257-5.0182-4.6-6.5933l1.838-1.838c.1335-.1335.2394-.292.3117-.4664.0722-.1744.1094-.3614.1094-.5502 0-.1888-.0372-.3757-.1094-.5501-.0723-.1745-.1782-.333-.3117-.4665-.1335-.1335-.2919-.2394-.4664-.3116-.1744-.0723-.3613-.1094-.5501-.1094-.1888 0-.3758.0371-.5502.1094-.1744.0722-.3329.1781-.4664.3116l-2.033 2.0332V54.625c.0013-1.1433.4561-2.2395 1.2646-3.0479.8084-.8085 1.9046-1.2633 3.0479-1.2646h7.1875v4.3125c0 .3812.1514.7469.421 1.0165.2696.2695.6352.421 1.0165.421h5.75c.3812 0 .7469-.1515 1.0165-.421.2695-.2696.421-.6353.421-1.0165v-4.3125H80.5c1.1433.0013 2.2395.4561 3.0479 1.2646.8085.8084 1.2633 1.9046 1.2646 3.0479v18.6875zM86.25 41.8068c0 3.1046-2.5794 5.6307-5.75 5.6307h-2.8849c2.8184-2.1116 4.7653-5.1828 5.4724-8.6327.0956.0046.1915.0077.2875.0077 1.0098.0007 2.0018-.2662 2.875-.7736v3.7679zm-2.875-5.8693v-5.75c.7625 0 1.4938.3029 2.0329.8421.5392.5391.8421 1.2704.8421 2.0329 0 .7625-.3029 1.4938-.8421 2.0329-.5391.5392-1.2704.8421-2.0329.8421zm2.875-7.8514c-1.1598-.6722-2.5183-.9171-3.8398-.6924-.1518-.0535-.3117-.0809-.4727-.0812-1.3448-.0656-2.6649-.3866-3.8897-.9459-2.6414-1.2193-4.2417-3.3988-4.7547-6.4779-.0515-.3167-.2075-.6071-.4433-.8248-.2357-.2177-.5376-.3501-.8574-.3762-.3198-.0261-.6392.0557-.9071.2322-.2679.1766-.469.4378-.5711.742-.1087.3123-2.7929 7.6506-14.4517 7.6506-.161.0003-.3209.0277-.4728.0812-1.3215-.2247-2.6799.0202-3.8397.6924v-2.7545c0-8.4194 7.7382-15.2691 17.25-15.2691 4.6379 0 8.9905 1.6078 12.2561 4.5272 3.2204 2.8792 4.9939 6.6939 4.9939 10.7419v2.7545z" fill="#F0B6B9"/><path d="M76.1875 35.9375c.7939 0 1.4375-.6436 1.4375-1.4375s-.6436-1.4375-1.4375-1.4375S74.75 33.7061 74.75 34.5s.6436 1.4375 1.4375 1.4375zM61.8125 35.9375c.7939 0 1.4375-.6436 1.4375-1.4375s-.6436-1.4375-1.4375-1.4375-1.4375.6436-1.4375 1.4375.6436 1.4375 1.4375 1.4375zM67.5625 38.8125h2.875c.3812 0 .7469-.1514 1.0165-.421.2696-.2696.421-.6353.421-1.0165s-.1514-.7469-.421-1.0165c-.2696-.2696-.6353-.421-1.0165-.421H69V34.5c0-.3812-.1514-.7469-.421-1.0165-.2696-.2696-.6353-.421-1.0165-.421s-.7469.1514-1.0165.421c-.2696.2696-.421.6353-.421 1.0165v2.875c0 .3812.1514.7469.421 1.0165.2696.2696.6353.421 1.0165.421zM30.1875 35.9375c.7939 0 1.4375-.6436 1.4375-1.4375s-.6436-1.4375-1.4375-1.4375S28.75 33.7061 28.75 34.5s.6436 1.4375 1.4375 1.4375zM15.8125 35.9375c.7939 0 1.4375-.6436 1.4375-1.4375s-.6436-1.4375-1.4375-1.4375-1.4375.6436-1.4375 1.4375.6436 1.4375 1.4375 1.4375zM21.5625 38.8125h2.875c.3812 0 .7469-.1514 1.0165-.421.2696-.2696.421-.6353.421-1.0165s-.1514-.7469-.421-1.0165c-.2696-.2696-.6353-.421-1.0165-.421H23V34.5c0-.3812-.1515-.7469-.421-1.0165-.2696-.2696-.6353-.421-1.0165-.421s-.7469.1514-1.0165.421c-.2695.2696-.421.6353-.421 1.0165v2.875c0 .3812.1515.7469.421 1.0165.2696.2696.6353.421 1.0165.421zM40.25 70.4375c.7939 0 1.4375-.6436 1.4375-1.4375s-.6436-1.4375-1.4375-1.4375-1.4375.6436-1.4375 1.4375.6436 1.4375 1.4375 1.4375zM51.75 70.4375c.7939 0 1.4375-.6436 1.4375-1.4375s-.6436-1.4375-1.4375-1.4375-1.4375.6436-1.4375 1.4375.6436 1.4375 1.4375 1.4375z" fill="#F0B6B9"/><path d="M17.2499 38.8125c-.2451-.0004-.4862.062-.7004.1812-.2141.1192-.3942.2913-.523.4998-.1288.2086-.202.4466-.2128.6915-.0107.2449.0415.4884.1516.7074h-.001c.0028.0059.0095.018.0179.0343l.0079.0146c.2397.4454 2.1241 3.6212 7.0098 3.6212s6.7701-3.1758 7.01-3.6207l.0079-.0146c.0083-.0158.0149-.0283.018-.0343h-.0011c.0844-.1687.1347-.3524.148-.5405.0134-.1882-.0104-.3771-.0701-.5561-.0596-.1789-.1539-.3444-.2775-.4869-.1236-.1425-.2741-.2593-.4428-.3436-.1687-.0844-.3524-.1347-.5405-.1481-.1882-.0133-.3772.0105-.5561.0701-.179.0597-.3444.154-.4869.2776-.1425.1236-.2593.274-.3436.4428h-.0011l.0095-.018c-.046.0848-1.1696 2.0973-4.4737 2.0973s-4.4276-2.0134-4.4742-2.0993l.0095.018h-.001c-.1193-.2385-.3026-.4391-.5294-.5792-.2269-.1402-.4882-.2145-.7549-.2145zM74.7501 38.8125c-.2669.0001-.5284.0745-.7553.215-.2269.1404-.4102.3413-.5293.5801h-.0011l.0095-.018c-.0462.0854-1.1697 2.0979-4.4738 2.0979s-4.4277-2.0134-4.4743-2.0993l.0096.018h-.0011c-.0844-.1688-.2011-.3192-.3436-.4428-.1425-.1236-.308-.2179-.4869-.2776-.179-.0596-.3679-.0834-.5561-.0701-.1882.0134-.3718.0637-.5406.1481-.1687.0843-.3191.2011-.4427.3436-.1236.1425-.2179.308-.2776.4869-.0596.179-.0834.3679-.0701.5561.0134.1881.0637.3718.1481.5405h-.0011c.0029.006.0095.018.0179.0343.0026.0049.0053.0098.008.0144.2404.4471 2.1248 3.6229 7.0105 3.6229s6.77-3.1758 7.0099-3.6209c.0027-.0047.0054-.0095.0079-.0144.0083-.0158.0149-.0284.018-.0343h-.0011c.1103-.219.1626-.4626.1519-.7076-.0106-.245-.0839-.4831-.2127-.6917-.1288-.2087-.309-.3808-.5232-.5-.2143-.1193-.4555-.1816-.7007-.1811zM51.7501 73.3125c-.2669.0001-.5284.0745-.7553.215-.2269.1404-.4102.3413-.5293.5801h-.0011l.0095-.0188c-.0462.0862-1.1697 2.0987-4.4738 2.0987s-4.4277-2.0125-4.4743-2.0993l.0096.0189h-.0011c-.0844-.1687-.2011-.3192-.3436-.4428-.1425-.1236-.308-.2179-.4869-.2775-.179-.0597-.3679-.0835-.5561-.0701-.1882.0133-.3718.0636-.5406.148-.1687.0844-.3191.2011-.4427.3436-.1236.1425-.2179.308-.2776.4869-.0596.179-.0834.3679-.0701.5561.0134.1881.0637.3718.1481.5405h-.0011c.0029.006.0095.018.0179.0344l.008.0145c.2404.446 2.1248 3.6218 7.0105 3.6218s6.7701-3.1758 7.0099-3.6207l.0079-.0146c.0083-.0158.015-.0283.018-.0343h-.0011c.1103-.219.1626-.4626.1519-.7076-.0106-.2449-.0839-.4831-.2127-.6917s-.309-.3808-.5232-.5c-.2143-.1192-.4555-.1816-.7007-.1811z" fill="#F0B6B9"/></svg>