<svg width="457" height="537" fill="none" xmlns="http://www.w3.org/2000/svg"><path d="M442.27 316.795l-1.227-1.052 3.157-3.68c.279-.326.418-.749.385-1.176-.033-.427-.234-.824-.559-1.103l-1.227-1.053 3.157-3.68c.279-.325.417-.748.385-1.176-.033-.427-.234-.824-.56-1.103l-7.36-6.314c-.325-.279-.748-.417-1.176-.385-.427.033-.824.234-1.103.56l-3.157 3.68-1.227-1.052c-.325-.28-.748-.418-1.175-.385-.428.032-.825.234-1.104.559l-3.157 3.68-9.311-7.987-.634-8.445c-.018-.212-.076-.418-.173-.607-.098-.19-.231-.358-.393-.495l-33.122-28.413c-.806-.691-1.739-1.216-2.748-1.546-1.008-.33-2.072-.458-3.13-.377-2.137.163-4.122 1.169-5.517 2.796l-33.674 39.255c-1.395 1.627-2.087 3.741-1.924 5.878.081 1.059.37 2.09.849 3.037.48.947 1.142 1.789 1.947 2.48l63.79 54.72c1.627 1.395 3.742 2.088 5.879 1.924 2.137-.164 4.121-1.169 5.517-2.796l29.464-34.349c1.396-1.626 2.088-3.741 1.924-5.878-.164-2.137-1.169-4.121-2.796-5.517zm-4.727-16.831l4.907 4.209-2.105 2.454-4.906-4.21 2.104-2.453zm-6.663 2.802l9.814 8.419-2.104 2.453-9.814-8.418 2.104-2.454zm-50.296-43.144l32.619 27.981.635 8.444c.017.212.076.419.173.608.097.189.231.358.393.495l25.761 22.099c.976.837 1.58 2.028 1.678 3.31.098 1.282-.317 2.551-1.154 3.527l-5.262 6.133-20.854-17.889c.267-3.761-.351-7.532-1.803-11.012-1.453-3.479-3.7-6.57-6.562-9.025s-6.259-4.206-9.919-5.112c-3.66-.906-7.481-.942-11.158-.106l-20.855-17.889 9.471-11.041c.837-.976 2.028-1.579 3.31-1.677 1.283-.099 2.551.317 3.527 1.154zm-6.15 39.441c2.705-3.154 6.285-5.435 10.287-6.554 4.002-1.12 8.246-1.027 12.196.266 3.949 1.292 7.427 3.727 9.992 6.996 2.566 3.269 4.105 7.225 4.422 11.369.317 4.143-.602 8.288-2.64 11.909-2.038 3.621-5.105 6.557-8.811 8.436-3.707 1.878-7.888 2.616-12.013 2.118-4.126-.497-8.012-2.207-11.166-4.912-4.229-3.628-6.844-8.788-7.27-14.344-.425-5.557 1.374-11.054 5.003-15.284zm-8.244 12.093l-20.855-17.889 16.837-19.628 19.309 16.564c-4.282 1.67-7.996 4.531-10.706 8.243-2.709 3.713-4.3 8.123-4.585 12.71zm42.592 17.372c2.573-2.991 4.369-6.569 5.232-10.418l19.309 16.563-16.837 19.628-20.855-17.89c5.125-1.126 9.743-3.894 13.151-7.883zm-4.395 32.43l-63.79-54.72c-.976-.837-1.58-2.028-1.678-3.31-.098-1.283.317-2.551 1.155-3.527l3.156-3.68 23.112 19.825c.678 6.057 3.627 11.631 8.253 15.6 4.626 3.968 10.585 6.034 16.674 5.783l23.112 19.825-3.157 3.68c-.837.976-2.028 1.58-3.31 1.678-1.282.098-2.551-.317-3.527-1.154z" fill="#8AC6D1"/><path d="M378.806 326.237c2.669 2.29 5.956 3.736 9.447 4.157 3.491.421 7.029-.203 10.165-1.793 3.137-1.589 5.731-4.073 7.456-7.137 1.725-3.065 2.502-6.571 2.234-10.077-.269-3.506-1.571-6.854-3.741-9.62-2.171-2.766-5.114-4.827-8.456-5.92-3.342-1.094-6.933-1.172-10.319-.225-3.386.947-6.416 2.877-8.705 5.546-3.07 3.579-4.593 8.231-4.233 12.932.36 4.702 2.573 9.067 6.152 12.137zm21.046-24.534c2.183 1.873 3.763 4.351 4.538 7.122.774 2.771.71 5.709-.184 8.443-.895 2.734-2.581 5.142-4.844 6.918-2.263 1.776-5.002 2.841-7.871 3.061-2.868.22-5.738-.416-8.245-1.828-2.507-1.411-4.539-3.534-5.84-6.1-1.3-2.566-1.811-5.46-1.467-8.316.345-2.857 1.528-5.547 3.401-7.73 2.512-2.929 6.084-4.739 9.931-5.033 3.847-.295 7.653.951 10.581 3.463zM370.061 271.889l9.814 8.419c.325.279.748.417 1.176.384.427-.032.824-.233 1.103-.559l6.314-7.36c.279-.326.417-.748.385-1.176-.033-.427-.234-.824-.559-1.103l-9.814-8.419c-.326-.279-.749-.417-1.176-.384-.427.032-.824.233-1.103.559l-6.314 7.36c-.279.326-.418.748-.385 1.176.033.427.234.824.559 1.103zm7.541-6.308l7.36 6.314-4.209 4.907-7.36-6.314 4.209-4.907zM366.55 285.912c-.728-.624-1.625-1.018-2.577-1.133-.952-.115-1.917.055-2.772.489-.855.433-1.563 1.111-2.033 1.946-.471.836-.683 1.793-.61 2.749.074.956.429 1.869 1.021 2.623.592.755 1.394 1.317 2.306 1.615.911.298 1.89.319 2.814.061.924-.258 1.75-.785 2.374-1.512.837-.976 1.253-2.245 1.154-3.527-.098-1.283-.701-2.473-1.677-3.311zm-4.209 4.907c-.243-.208-.418-.483-.505-.791-.086-.308-.079-.634.021-.938.099-.304.287-.571.538-.769.251-.197.556-.315.875-.34.318-.024.637.046.916.203.278.157.504.393.649.678.144.285.201.607.163.924-.039.317-.17.616-.378.859-.279.325-.676.526-1.104.559-.427.033-.85-.106-1.175-.385zM420.526 332.214c-.728-.625-1.624-1.019-2.576-1.134-.953-.115-1.917.055-2.773.489-.855.434-1.563 1.111-2.033 1.947-.471.835-.682 1.792-.609 2.748.073.956.428 1.869 1.02 2.624.592.754 1.395 1.316 2.306 1.614.911.298 1.891.32 2.814.061.924-.258 1.75-.784 2.374-1.512.838-.976 1.253-2.245 1.155-3.527-.098-1.282-.702-2.473-1.678-3.31zm-4.209 4.907c-.243-.208-.418-.484-.504-.792-.086-.308-.079-.634.02-.938.1-.304.287-.571.538-.768.252-.198.556-.316.875-.341.319-.024.637.047.916.203.279.157.504.393.649.678.144.285.201.607.163.924-.038.318-.17.617-.378.859-.279.326-.676.527-1.103.559-.428.033-.851-.105-1.176-.384zM259.587 250.942l-1.484.64-1.919-4.453c-.169-.394-.489-.704-.887-.862-.398-.159-.843-.153-1.237.017l-1.484.64-1.919-4.453c-.17-.394-.489-.704-.887-.862-.398-.159-.843-.152-1.237.017l-8.905 3.838c-.394.17-.704.489-.863.887-.158.398-.152.843.018 1.237l1.919 4.453-1.485.639c-.393.17-.703.489-.862.887-.158.399-.152.844.018 1.237l1.919 4.453-11.266 4.855-7.865-3.14c-.198-.078-.409-.116-.622-.112-.213.004-.422.05-.617.135l-40.076 17.27c-.975.42-1.857 1.028-2.597 1.789-.739.761-1.322 1.66-1.714 2.646-.792 1.992-.761 4.216.088 6.185l20.468 47.497c.848 1.968 2.443 3.519 4.435 4.311.986.392 2.039.586 3.101.571 1.061-.015 2.109-.239 3.083-.659l77.183-33.26c1.968-.848 3.519-2.444 4.311-4.435.792-1.992.76-4.216-.088-6.185l-17.909-41.56c-.848-1.968-2.444-3.519-4.435-4.311-1.992-.792-4.216-.76-6.185.088zm-17.196-3.149l5.937-2.559 1.279 2.969-5.937 2.558-1.279-2.968zm-.41 7.216l11.874-5.117 1.279 2.969-11.874 5.117-1.279-2.969zm-60.856 26.225l39.467-17.008 7.865 3.14c.198.078.41.116.622.112.213-.004.423-.05.618-.135l31.17-13.432c1.181-.509 2.515-.528 3.71-.053 1.195.475 2.152 1.406 2.661 2.587l3.198 7.421-25.232 10.874c-3.262-1.893-6.921-2.995-10.685-3.219-3.764-.224-7.528.436-10.99 1.928-3.463 1.493-6.528 3.775-8.95 6.665-2.422 2.889-4.134 6.306-4.998 9.976l-25.233 10.874-5.757-13.359c-.509-1.181-.528-2.515-.052-3.71.475-1.195 1.405-2.152 2.586-2.661zm32.728 22.855c-1.645-3.817-2.121-8.035-1.368-12.122.753-4.087 2.701-7.858 5.597-10.838 2.897-2.98 6.612-5.034 10.676-5.903 4.064-.868 8.294-.512 12.155 1.024 3.862 1.535 7.181 4.182 9.538 7.604 2.358 3.422 3.648 7.466 3.707 11.622.059 4.155-1.116 8.234-3.375 11.722-2.26 3.487-5.503 6.227-9.319 7.871-5.118 2.206-10.902 2.288-16.08.228-5.178-2.059-9.326-6.091-11.531-11.208zm7.241 12.719l-25.233 10.873-10.234-23.748 23.363-10.068c-.381 4.58.557 9.174 2.701 13.239 2.145 4.065 5.408 7.432 9.403 9.704zm34.319-30.629c-1.556-3.625-3.981-6.811-7.06-9.277l23.363-10.067 10.234 23.748-25.233 10.874c1.24-5.099.782-10.463-1.304-15.278zm27.201 18.197l-77.183 33.261c-1.181.508-2.516.527-3.711.052-1.195-.475-2.152-1.405-2.661-2.586l-1.919-4.453 27.964-12.051c5.739 2.053 12.043 1.853 17.64-.559 5.597-2.412 10.071-6.857 12.521-12.438l27.964-12.05 1.919 4.453c.509 1.18.528 2.515.052 3.71-.475 1.195-1.405 2.152-2.586 2.661z" fill="#8AC6D1"/><path d="M240.185 312.101c3.229-1.392 5.973-3.71 7.885-6.661 1.912-2.951 2.905-6.403 2.856-9.919-.05-3.515-1.142-6.938-3.136-9.833-1.995-2.896-4.804-5.135-8.071-6.435-3.268-1.299-6.847-1.6-10.286-.865-3.438.734-6.582 2.472-9.033 4.994-2.45 2.521-4.099 5.713-4.736 9.171-.637 3.458-.234 7.027 1.158 10.256 1.866 4.331 5.375 7.742 9.757 9.485 4.381 1.742 9.275 1.673 13.606-.193zm-12.793-29.686c2.642-1.139 5.563-1.468 8.392-.947 2.829.521 5.441 1.87 7.504 3.875 2.063 2.005 3.485 4.577 4.086 7.391.601 2.813.354 5.742-.709 8.415-1.063 2.673-2.895 4.971-5.264 6.603-2.369 1.633-5.169 2.525-8.046 2.566-2.877.041-5.701-.772-8.115-2.336-2.415-1.565-4.311-3.81-5.45-6.452-1.527-3.543-1.583-7.547-.158-11.132 1.426-3.585 4.217-6.456 7.76-7.983zM187.521 296.077l11.875-5.117c.393-.17.704-.489.862-.887.158-.399.152-.844-.018-1.237l-3.837-8.906c-.17-.394-.489-.704-.887-.862-.399-.159-.844-.152-1.237.017l-11.874 5.117c-.394.17-.704.489-.863.887-.158.399-.152.844.018 1.237l3.838 8.906c.169.394.488.704.887.862.398.159.843.152 1.236-.017zm-2.353-9.546l8.906-3.837 2.558 5.937-8.905 3.837-2.559-5.937zM198.576 305.392c-.881.38-1.629 1.012-2.151 1.817-.521.805-.792 1.746-.779 2.705.014.959.312 1.892.856 2.682s1.31 1.4 2.201 1.755c.891.354 1.867.436 2.805.236.938-.2 1.795-.674 2.463-1.362.669-.688 1.118-1.558 1.292-2.501.174-.943.064-1.917-.316-2.798-.509-1.181-1.466-2.111-2.661-2.586-1.195-.475-2.529-.457-3.71.052zm2.558 5.938c-.293.126-.618.163-.932.105-.315-.058-.605-.208-.834-.431-.229-.223-.387-.508-.454-.821-.067-.313-.039-.638.079-.935.118-.297.321-.552.585-.734.263-.181.574-.28.894-.285.319-.004.633.086.901.26.269.174.479.423.606.717.169.393.176.838.017 1.237-.158.398-.468.717-.862.887zM263.884 277.249c-.88.38-1.629 1.012-2.15 1.817-.522.804-.793 1.746-.779 2.705.013.959.311 1.892.855 2.682.544.789 1.31 1.4 2.201 1.754.891.355 1.868.437 2.805.237.938-.201 1.795-.675 2.464-1.363.668-.687 1.118-1.558 1.292-2.501.173-.943.063-1.916-.316-2.797-.509-1.181-1.466-2.111-2.661-2.587-1.195-.475-2.53-.456-3.711.053zm2.559 5.937c-.294.127-.618.163-.933.105-.314-.058-.604-.207-.833-.43-.23-.223-.388-.509-.454-.821-.067-.313-.04-.638.078-.935.118-.297.322-.553.585-.734.263-.181.575-.281.894-.285.32-.005.634.086.902.259.268.174.479.424.605.717.17.394.176.839.018 1.237-.159.398-.469.718-.862.887z" fill="#8AC6D1"/><path d="M244.872 429.994l-1.287-.977 2.931-3.862c.259-.342.372-.772.314-1.197-.058-.425-.283-.809-.624-1.068l-1.288-.977 2.932-3.862c.259-.342.372-.772.313-1.197-.058-.425-.282-.809-.624-1.068l-7.724-5.862c-.342-.26-.772-.373-1.197-.314-.425.058-.809.282-1.068.624l-2.931 3.862-1.288-.977c-.341-.259-.771-.372-1.196-.314-.425.058-.809.283-1.068.624l-2.931 3.863-9.772-7.416-1.139-8.392c-.029-.211-.1-.413-.209-.596-.108-.184-.251-.344-.421-.471l-34.761-26.382c-.846-.641-1.809-1.11-2.836-1.379-1.026-.27-2.096-.334-3.147-.19-2.123.291-4.044 1.414-5.34 3.121l-31.267 41.198c-1.296 1.707-1.86 3.859-1.569 5.983.144 1.051.494 2.064 1.029 2.98.536.916 1.246 1.718 2.092 2.36l66.947 50.809c1.707 1.295 3.859 1.86 5.982 1.569 2.124-.291 4.045-1.414 5.34-3.121l27.359-36.048c1.296-1.708 1.86-3.86 1.569-5.983-.291-2.123-1.413-4.044-3.121-5.34zm-5.724-16.519l5.15 3.909-1.955 2.575-5.149-3.909 1.954-2.575zm-6.483 3.196l10.299 7.817-1.954 2.575-10.3-7.817 1.955-2.575zM179.88 376.61l34.233 25.981 1.138 8.392c.03.21.101.413.209.596.108.183.252.343.422.471l27.036 20.519c1.024.777 1.698 1.93 1.873 3.204.174 1.274-.164 2.565-.942 3.589l-4.885 6.438-21.887-16.611c.042-3.77-.8-7.498-2.458-10.885-1.658-3.386-4.086-6.337-7.089-8.617-3.004-2.279-6.499-3.824-10.207-4.509-3.708-.686-7.524-.494-11.144.561l-21.887-16.611 8.794-11.587c.777-1.024 1.93-1.698 3.204-1.872 1.274-.175 2.565.164 3.59.941zm-3.783 39.739c2.513-3.311 5.95-5.801 9.878-7.158 3.928-1.357 8.17-1.518 12.189-.464 4.02 1.054 7.637 3.277 10.393 6.387 2.757 3.11 4.529 6.967 5.093 11.084.565 4.117-.105 8.309-1.923 12.046s-4.703 6.85-8.291 8.947c-3.588 2.097-7.717 3.083-11.865 2.833-4.148-.25-8.129-1.724-11.439-4.236-4.439-3.369-7.358-8.363-8.114-13.884-.757-5.521.71-11.117 4.079-15.555zm-7.506 12.564l-21.887-16.611 15.634-20.599 20.264 15.379c-4.174 1.924-7.711 5.002-10.193 8.869-2.483 3.868-3.808 8.366-3.818 12.962zm43.555 14.794c2.389-3.139 3.968-6.818 4.599-10.712l20.264 15.38-15.633 20.599-21.887-16.611c5.049-1.43 9.493-4.469 12.657-8.656zm-2.449 32.635l-66.947-50.809c-1.024-.778-1.698-1.93-1.873-3.204-.174-1.274.164-2.565.942-3.59l2.931-3.862 24.256 18.408c1.038 6.006 4.316 11.394 9.17 15.079 4.855 3.685 10.927 5.391 16.99 4.776l24.256 18.408-2.932 3.863c-.777 1.024-1.929 1.698-3.204 1.872-1.274.175-2.565-.164-3.589-.941z" fill="#fff"/><path d="M182.086 443.213c2.801 2.126 6.169 3.373 9.679 3.584 3.51.212 7.004-.622 10.04-2.397 3.036-1.774 5.477-4.409 7.016-7.57 1.538-3.162 2.104-6.709 1.627-10.193-.477-3.484-1.977-6.748-4.31-9.379-2.332-2.631-5.392-4.512-8.794-5.404-3.401-.892-6.99-.756-10.314.392-3.323 1.148-6.232 3.256-8.358 6.057-2.85 3.756-4.092 8.49-3.452 13.162.64 4.671 3.11 8.897 6.866 11.748zm19.542-25.749c2.292 1.739 4.016 4.119 4.955 6.838.939 2.72 1.051 5.656.321 8.439-.73 2.783-2.268 5.287-4.421 7.195-2.153 1.909-4.824 3.136-7.674 3.526-2.85.391-5.752-.072-8.339-1.331-2.587-1.259-4.743-3.256-6.195-5.74-1.451-2.484-2.134-5.343-1.961-8.215.173-2.871 1.194-5.627 2.933-7.919 2.332-3.073 5.79-5.094 9.612-5.617 3.822-.524 7.696.492 10.769 2.824zM170.109 389.485l10.299 7.816c.342.259.772.372 1.197.314.424-.058.809-.283 1.068-.624l5.862-7.725c.259-.341.372-.772.314-1.196-.058-.425-.283-.809-.624-1.068l-10.3-7.817c-.341-.259-.771-.372-1.196-.314-.425.058-.809.283-1.068.624l-5.863 7.725c-.259.341-.372.772-.314 1.197.059.424.283.808.625 1.068zm7.15-6.748l7.724 5.863-3.908 5.149-7.725-5.862 3.909-5.15zM167.442 403.693c-.764-.58-1.683-.92-2.64-.978-.957-.058-1.91.17-2.738.654-.828.484-1.494 1.202-1.914 2.064-.419.863-.574 1.83-.443 2.78.13.95.539 1.84 1.175 2.558.636.718 1.471 1.231 2.398 1.474.928.243 1.907.206 2.813-.107.907-.313 1.7-.888 2.28-1.652.777-1.024 1.116-2.315.941-3.589-.174-1.275-.848-2.427-1.872-3.204zm-3.909 5.149c-.254-.193-.446-.457-.55-.76-.105-.302-.117-.628-.036-.937.081-.309.252-.588.491-.8.239-.212.536-.348.853-.391.317-.044.639.008.926.148.288.139.527.361.689.637.161.276.237.594.218.913-.02.319-.133.625-.326.88-.259.341-.644.566-1.068.624-.425.058-.855-.055-1.197-.314zM224.089 446.685c-.764-.58-1.683-.92-2.64-.978-.957-.058-1.91.17-2.738.654-.828.484-1.494 1.202-1.913 2.065-.42.862-.574 1.829-.444 2.779.13.95.539 1.841 1.175 2.558.636.718 1.471 1.231 2.399 1.474.927.243 1.906.206 2.813-.107.906-.313 1.699-.888 2.279-1.652.777-1.024 1.116-2.315.941-3.589-.174-1.274-.848-2.427-1.872-3.204zm-3.908 5.149c-.255-.193-.447-.457-.551-.759-.104-.302-.117-.629-.036-.938.081-.309.252-.587.492-.799.239-.212.536-.349.852-.392.317-.044.639.008.927.148.287.14.527.362.688.638.161.275.237.593.218.912-.019.319-.133.625-.326.88-.259.342-.643.566-1.068.624-.425.058-.855-.054-1.196-.314zM80.4605 454.015l-1.566.4-1.1995-4.698c-.1061-.415-.3728-.772-.7415-.99-.3686-.219-.8091-.282-1.2244-.176l-1.566.4-1.1995-4.698c-.1061-.416-.3728-.772-.7414-.991-.3687-.218-.8092-.282-1.2245-.176l-9.396 2.4c-.4153.106-.7715.372-.9902.741s-.2819.809-.1759 1.224l1.1996 4.698-1.566.4c-.4154.106-.7716.373-.9903.742-.2186.368-.2819.809-.1759 1.224l1.1996 4.698-11.8859 3.035-7.2777-4.33c-.1833-.108-.3862-.179-.5969-.208-.2107-.029-.4251-.017-.6309.037l-42.28183 10.796c-1.02824.263-1.99471.725-2.84421 1.361-.84951.636-1.56541 1.434-2.10685 2.346-1.09347 1.844-1.40989 4.046-.87966 6.122l12.79521 50.112c.53023 2.077 1.86369 3.858 3.70702 4.951.91273.542 1.92312.898 2.97362 1.049 1.0504.151 2.1203.094 3.1486-.169l81.4317-20.792c2.0766-.53 3.8576-1.864 4.9512-3.707 1.093-1.844 1.41-4.046.88-6.122l-11.1963-43.848c-.5302-2.077-1.8637-3.858-3.707-4.951-1.8434-1.094-4.0456-1.41-6.1222-.88zm-16.4931-5.797l6.264-1.6.7997 3.132-6.264 1.6-.7997-3.132zm-1.5325 7.063l12.5279-3.198.7997 3.132-12.5279 3.198-.7997-3.132zm-64.20583 16.394l41.63983-10.632 7.2776 4.331c.1834.107.3862.178.5969.207.2107.029.4251.017.6309-.037l32.8859-8.397c1.246-.318 2.5673-.128 3.6733.528 1.106.656 1.9061 1.724 2.2242 2.97l1.9993 7.83-26.6219 6.798c-2.9256-2.379-6.3675-4.039-10.0502-4.849-3.6826-.809-7.5037-.745-11.157.188-3.6534.933-7.0375 2.708-9.8813 5.184-2.8439 2.476-5.0684 5.583-6.4954 9.073l-26.62191 6.798-3.59865-14.094c-.31814-1.246-.12829-2.568.5278-3.674.65608-1.106 1.72465-1.906 2.97063-2.224zm28.75483 27.688c-1.0281-4.026-.8391-8.267.543-12.186 1.3821-3.919 3.8954-7.34 7.2219-9.831 3.3265-2.491 7.3168-3.939 11.4665-4.162 4.1496-.223 8.2721.79 11.8461 2.91 3.5741 2.12 6.4392 5.253 8.2331 9.001 1.7938 3.749 2.4358 7.945 1.8448 12.058-.5911 4.114-2.3886 7.959-5.1652 11.051-2.7767 3.092-6.4078 5.291-10.4343 6.319-5.3992 1.379-11.125.556-15.9177-2.287-4.7926-2.843-8.2596-7.474-9.6382-12.873zm5.1646 13.694l-26.62191 6.798-6.397598-25.056 24.648708-6.294c-1.0913 4.465-.8831 9.148.6001 13.499 1.4831 4.35 4.1794 8.185 7.7707 11.053zm38.6832-24.89c-.9708-3.823-2.8679-7.349-5.5238-10.266l24.6488-6.294 6.3976 25.056-26.6219 6.798c2.0217-4.842 2.4077-10.212 1.0993-15.294zm24.0234 22.224l-81.4317 20.792c-1.246.318-2.5673.128-3.67334-.528-1.106-.656-1.90607-1.724-2.22422-2.97l-1.19955-4.698 29.50331-7.534c5.3477 2.924 11.6051 3.712 17.5104 2.204s11.0193-5.199 14.3106-10.329l29.5034-7.533 1.1995 4.698c.3182 1.246.1283 2.568-.5278 3.674-.6561 1.106-1.7246 1.906-2.9706 2.224z" fill="#fff"/><path d="M51.7402 511.391c3.4069-.87 6.4794-2.731 8.8289-5.347 2.3495-2.616 3.8705-5.87 4.3706-9.35.5001-3.481-.0431-7.032-1.561-10.203-1.5179-3.172-3.9422-5.823-6.9664-7.617-3.0242-1.794-6.5125-2.65-10.0237-2.462-3.5112.189-6.8877 1.414-9.7024 3.522-2.8147 2.107-4.9413 5.002-6.1108 8.318-1.1695 3.316-1.3294 6.904-.4595 10.311 1.1665 4.569 4.1001 8.487 8.1554 10.893 4.0554 2.405 8.9003 3.102 13.4689 1.935zm-7.997-31.32c2.7875-.712 5.7235-.581 8.4366.376 2.7132.957 5.0817 2.697 6.806 5 1.7243 2.303 2.727 5.065 2.8812 7.938.1543 2.873-.5468 5.727-2.0146 8.201-1.4678 2.475-3.6364 4.458-6.2315 5.7-2.5951 1.242-5.5002 1.687-8.3479 1.277-2.8477-.409-5.5101-1.653-7.6506-3.576-2.1404-1.922-3.6628-4.436-4.3745-7.223-.9545-3.738-.3849-7.702 1.5834-11.02 1.9682-3.318 5.1739-5.718 8.9119-6.673zM2.22756 487.335l12.52794-3.199c.4153-.106.7715-.372.9902-.741s.282-.809.176-1.224l-2.3991-9.396c-.1061-.416-.3728-.772-.7414-.991-.3687-.218-.8092-.282-1.2245-.176l-12.527937 3.199c-.415323.106-.771513.373-.990213.742-.21869.368-.28198.809-.17593 1.224l2.3991 9.396c.106047.415.372739.772.74141.99.36866.219.80911.282 1.22443.176zm-.8331-9.796l9.39594-2.399 1.5994 6.264-9.39594 2.399-1.5994-6.264zM11.6904 498.264c-.9292.237-1.76711.745-2.40788 1.458-.64077.713-1.05558 1.601-1.19197 2.55-.13639.949.01176 1.918.42572 2.783.41397.865 1.07515 1.588 1.89993 2.077.8248.489 1.7761.723 2.7337.672.9576-.052 1.8785-.386 2.6461-.961.7677-.575 1.3477-1.364 1.6666-2.269.319-.904.3626-1.883.1254-2.812-.3182-1.246-1.1183-2.314-2.2243-2.97-1.106-.656-2.4273-.846-3.6733-.528zm1.5994 6.264c-.3097.079-.6359.064-.9374-.042-.3015-.106-.5646-.3-.7562-.556-.1916-.255-.303-.562-.3201-.882-.0172-.319.0607-.636.2238-.911s.404-.495.6924-.633c.2883-.138.6111-.187.9275-.142.3164.045.6123.184.8501.397.2378.214.407.493.4861.803.106.415.0427.856-.176 1.224-.2187.369-.5749.636-.9902.742zM80.5942 480.67c-.9292.238-1.7672.745-2.4079 1.459-.6408.713-1.0556 1.601-1.192 2.55-.1364.949.0118 1.917.4257 2.782.414.865 1.0752 1.588 1.9 2.078.8247.489 1.7761.723 2.7337.671.9576-.051 1.8784-.386 2.6461-.96.7676-.575 1.3476-1.365 1.6666-2.269.3189-.904.3625-1.883.1253-2.812-.3181-1.246-1.1182-2.315-2.2242-2.971-1.106-.656-2.4274-.846-3.6733-.528zm1.5994 6.264c-.3098.079-.636.065-.9374-.041-.3015-.107-.5647-.3-.7563-.556-.1915-.256-.303-.563-.3201-.882-.0171-.319.0608-.636.2239-.911.163-.275.404-.496.6923-.634.2884-.138.6112-.187.9276-.141.3164.045.6122.183.85.397.2379.213.407.493.4861.803.1061.415.0428.855-.1759 1.224s-.5749.635-.9902.741z" fill="#fff"/><path d="M112.158 292.328l-1.58.336-1.009-4.742c-.089-.42-.341-.786-.701-1.02-.359-.233-.797-.314-1.216-.225l-1.581.336-1.009-4.743c-.089-.419-.341-.786-.7-1.019-.36-.233-.797-.314-1.217-.225l-9.4849 2.017c-.4193.089-.786.341-1.0194.701-.2334.359-.3145.797-.2253 1.216l1.0086 4.743-1.5809.336c-.4193.089-.786.341-1.0194.7-.2334.36-.3145.798-.2253 1.217l1.0086 4.742-11.999 2.552-7.0965-4.621c-.1789-.115-.3787-.194-.5881-.232-.2093-.037-.424-.033-.6318.012l-42.6839 9.077c-1.038.221-2.0224.644-2.8969 1.245-.8746.601-1.6221 1.369-2.2 2.259-1.1672 1.798-1.5724 3.985-1.1266 6.082l10.7581 50.588c.4458 2.096 1.7062 3.93 3.5038 5.097.8901.578 1.8852.975 2.9287 1.168 1.0435.193 2.1149.179 3.1529-.042l82.2063-17.481c2.096-.446 3.929-1.707 5.097-3.504 1.167-1.798 1.572-3.985 1.126-6.082l-9.413-44.265c-.446-2.096-1.706-3.929-3.504-5.096-1.798-1.168-3.985-1.573-6.082-1.127zm-16.2446-6.46l6.3236-1.344.672 3.161-6.3233 1.345-.6723-3.162zm-1.8171 6.996l12.6467-2.689.673 3.162-12.6473 2.689-.6724-3.162zm-64.8162 13.784l42.0357-8.939 7.0965 4.621c.1789.115.3788.194.5881.231.2093.038.4241.034.6319-.011l33.1987-7.06c1.258-.268 2.57-.025 3.649.676 1.078.7 1.835 1.8 2.102 3.058l1.681 7.904-26.875 5.716c-2.827-2.496-6.1989-4.294-9.8458-5.252-3.647-.957-7.4675-1.048-11.1556-.263-3.688.784-7.1412 2.421-10.0828 4.78-2.9417 2.359-5.2901 5.374-6.8571 8.803l-26.875 5.715-3.0257-14.228c-.2675-1.258-.0244-2.57.6759-3.649.7003-1.078 1.8004-1.834 3.0582-2.102zm27.6115 28.828c-.8644-4.064-.5041-8.294 1.0354-12.154 1.5395-3.86 4.1891-7.177 7.6136-9.531 3.4245-2.354 7.4701-3.64 11.6254-3.695 4.1552-.054 8.2334 1.124 11.7188 3.387 3.4854 2.263 6.2215 5.509 7.8622 9.327 1.6408 3.818 2.1126 8.037 1.3557 12.123-.7569 4.086-2.7085 7.856-5.6079 10.833-2.8995 2.977-6.6166 5.027-10.6813 5.891-5.4506 1.159-11.1384.106-15.8122-2.929-4.6737-3.034-7.9506-7.801-9.1097-13.252zm4.6066 13.892l-26.8751 5.715-5.379-25.294 24.8831-5.292c-1.271 4.417-1.2524 9.105.0536 13.512s3.8449 8.348 7.3174 11.359zm39.6578-23.305c-.815-3.86-2.568-7.459-5.1037-10.481l24.8827-5.292 5.379 25.294-26.8746 5.715c2.2156-4.756 2.8186-10.106 1.7166-15.236zm23.105 23.177l-82.2057 17.482c-1.2578.267-2.5704.024-3.649-.676-1.0785-.7-1.8347-1.801-2.1022-3.058l-1.0086-4.743 29.7839-6.334c5.225 3.138 11.4454 4.178 17.4069 2.91 5.9615-1.268 11.2205-4.749 14.7166-9.741l29.7841-6.334 1.008 4.743c.268 1.257.025 2.57-.676 3.649-.7 1.078-1.8 1.834-3.058 2.102z" fill="#8AC6D1"/><path d="M81.1412 348.495c3.4394-.731 6.5846-2.466 9.038-4.985 2.4533-2.519 4.1047-5.709 4.7451-9.166.6405-3.458.2413-7.027-1.1471-10.258-1.3883-3.23-3.7035-5.977-6.6526-7.892-2.9492-1.914-6.4-2.912-9.916-2.865-3.5159.046-6.9392 1.134-9.8368 3.126-2.8977 1.992-5.1396 4.798-6.4423 8.064-1.3026 3.266-1.6075 6.845-.8761 10.285.9808 4.612 3.7535 8.645 7.7083 11.213 3.9547 2.568 8.7674 3.459 13.3795 2.478zm-6.7238-31.617c2.814-.599 5.7423-.349 8.4145.717 2.6723 1.065 4.9685 2.9 6.5982 5.271 1.6298 2.37 2.5199 5.171 2.5579 8.048.0379 2.877-.7781 5.7-2.3447 8.113-1.5667 2.413-3.8137 4.307-6.4569 5.443-2.6432 1.136-5.5639 1.463-8.3927.939-2.8288-.524-5.4388-1.876-7.4997-3.883-2.061-2.007-3.4804-4.58-4.0789-7.395-.8024-3.773-.073-7.711 2.0278-10.946 2.1008-3.236 5.401-5.505 9.1745-6.307zM32.642 322.457l12.6471-2.69c.4192-.089.7859-.341 1.0193-.7.2335-.36.3145-.797.2254-1.217l-2.0172-9.485c-.0891-.419-.3412-.786-.7007-1.019-.3596-.234-.7971-.315-1.2164-.226l-12.647 2.69c-.4193.089-.786.341-1.0194.701-.2334.359-.3145.797-.2253 1.216l2.0171 9.485c.0892.42.3412.786.7008 1.02.3595.233.797.314 1.2163.225zm-.4363-9.822l9.4853-2.017 1.3448 6.324-9.4853 2.017-1.3448-6.324zM41.6551 333.759c-.938.2-1.7958.673-2.4649 1.36s-1.1195 1.557-1.2942 2.5c-.1746.943-.0658 1.916.3129 2.797.3786.881 1.01 1.63 1.8143 2.153.8044.522 1.7455.794 2.7044.781.9589-.012 1.8925-.309 2.6828-.852.7902-.544 1.4017-1.309 1.7569-2.2.3553-.891.4385-1.867.239-2.805-.2675-1.257-1.0237-2.357-2.1023-3.058-1.0785-.7-2.3911-.943-3.6489-.676zm1.3447 6.324c-.3126.066-.638.039-.9349-.08-.2969-.118-.5521-.322-.7332-.585-.181-.264-.2799-.575-.2842-.895-.0042-.319.0865-.633.2606-.901.174-.268.4237-.479.7174-.605s.6182-.162.9325-.104c.3143.058.6043.208.8333.431.229.223.3867.509.4532.822.0892.419.0081.857-.2253 1.216-.2334.36-.6001.612-1.0194.701zM111.214 318.967c-.938.199-1.796.673-2.465 1.36-.669.687-1.119 1.557-1.294 2.499-.175.943-.066 1.917.313 2.798.378.881 1.01 1.63 1.814 2.152.805.523 1.746.795 2.705.782.958-.013 1.892-.309 2.682-.853.791-.543 1.402-1.308 1.757-2.199.356-.891.439-1.867.239-2.805-.267-1.258-1.023-2.358-2.102-3.058-1.079-.7-2.391-.944-3.649-.676zm1.345 6.323c-.313.067-.638.039-.935-.079-.297-.119-.552-.322-.733-.586-.181-.263-.28-.574-.284-.894-.005-.32.086-.633.26-.902.174-.268.424-.478.717-.604.294-.127.619-.163.933-.105.314.059.604.209.833.432.229.223.387.509.453.821.09.42.009.857-.225 1.217-.233.359-.6.611-1.019.7zM189.367 184.251l-1.472-.668 2.003-4.416c.177-.39.192-.835.041-1.236-.15-.401-.454-.726-.845-.903l-1.472-.668 2.004-4.415c.177-.391.192-.835.041-1.237-.151-.401-.455-.726-.845-.903l-8.831-4.006c-.391-.178-.836-.192-1.237-.042-.401.151-.726.455-.903.846l-2.003 4.415-1.472-.668c-.391-.177-.835-.191-1.237-.041-.401.151-.726.455-.903.846l-2.003 4.415-11.171-5.068-2.969-7.931c-.075-.199-.19-.381-.336-.536-.146-.154-.321-.279-.515-.365l-39.74-18.03c-.966-.438-2.01-.682-3.07-.717-1.061-.035-2.118.139-3.112.512-2.006.754-3.631 2.274-4.516 4.226L83.4361 194.76c-.8855 1.952-.9594 4.175-.2054 6.182.3733.993.9387 1.903 1.6637 2.678.7251.775 1.5957 1.4 2.5621 1.838l76.5365 34.723c1.951.885 4.175.959 6.181.205 2.006-.754 3.631-2.274 4.517-4.226l18.696-41.211c.886-1.952.96-4.176.206-6.182-.754-2.006-2.274-3.631-4.226-4.516zm-9.24-14.841l5.887 2.671-1.335 2.944-5.888-2.671 1.336-2.944zm-5.615 4.552l11.775 5.342-1.336 2.944-11.774-5.342 1.335-2.944zm-60.346-27.378l39.137 17.756 2.968 7.931c.076.199.19.381.336.535.146.155.322.279.516.366l30.908 14.022c1.172.532 2.084 1.506 2.536 2.71.452 1.204.408 2.538-.123 3.709l-3.339 7.359-25.021-11.351c-.795-3.686-2.441-7.135-4.808-10.07-2.366-2.936-5.387-5.276-8.821-6.834-3.434-1.557-7.185-2.29-10.952-2.137-3.768.152-7.447 1.185-10.744 3.015l-25.021-11.352 6.01-13.247c.531-1.171 1.506-2.083 2.709-2.535 1.204-.452 2.538-.408 3.709.123zm5.112 39.59c1.717-3.785 4.517-6.975 8.047-9.168 3.53-2.192 7.631-3.289 11.784-3.151 4.154.138 8.173 1.504 11.55 3.927 3.376 2.422 5.959 5.791 7.421 9.681 1.462 3.89 1.737 8.126.792 12.172-.946 4.047-3.07 7.722-6.105 10.562-3.034 2.839-6.842 4.715-10.943 5.39-4.1.674-8.309.118-12.093-1.599-5.075-2.302-9.027-6.526-10.987-11.742-1.961-5.216-1.769-10.998.534-16.072zm-4.538 13.914l-25.0215-11.352 10.6835-23.549 23.167 10.51c-3.644 2.8-6.412 6.585-7.976 10.906-1.565 4.322-1.861 9.001-.853 13.485zm45.749 4.783c1.635-3.591 2.361-7.528 2.114-11.465l23.167 10.51-10.684 23.55-25.022-11.352c4.607-2.513 8.267-6.46 10.425-11.243zm4.839 32.366l-76.536-34.723c-1.171-.531-2.0831-1.506-2.5355-2.709-.4524-1.204-.408-2.538.1232-3.709l2.0033-4.416 27.73 12.58c2.342 5.627 6.731 10.156 12.282 12.674 5.55 2.518 11.849 2.838 17.626.895l27.729 12.58-2.003 4.416c-.531 1.171-1.506 2.083-2.71 2.535-1.204.453-2.538.409-3.709-.123z" fill="#8AC6D1"/><path d="M131.067 211.045c3.202 1.453 6.763 1.923 10.232 1.352 3.47-.571 6.692-2.158 9.26-4.561 2.567-2.402 4.365-5.512 5.165-8.936.8-3.424.567-7.008-.67-10.3-1.237-3.291-3.422-6.142-6.28-8.192-2.857-2.049-6.258-3.206-9.772-3.322-3.514-.117-6.984.811-9.971 2.666-2.987 1.856-5.357 4.555-6.81 7.757-1.948 4.294-2.11 9.186-.451 13.6 1.658 4.414 5.003 7.988 9.297 9.936zm13.355-29.437c2.619 1.189 4.828 3.127 6.346 5.571 1.518 2.444 2.277 5.283 2.182 8.159-.096 2.875-1.042 5.657-2.719 7.995-1.676 2.338-4.009 4.126-6.702 5.138-2.693 1.012-5.626 1.203-8.427.548-2.802-.655-5.346-2.125-7.312-4.226-1.965-2.101-3.264-4.737-3.731-7.576-.467-2.839-.082-5.752 1.106-8.372 1.594-3.513 4.518-6.25 8.13-7.607 3.611-1.357 7.613-1.224 11.127.37zM107.489 161.303l11.775 5.342c.39.177.835.192 1.236.041s.726-.455.903-.845l4.007-8.832c.177-.39.192-.835.041-1.236s-.455-.726-.845-.903l-11.775-5.342c-.39-.177-.835-.192-1.236-.041-.402.151-.727.455-.904.845l-4.006 8.831c-.177.39-.192.835-.041 1.236.151.402.455.727.845.904zm5.478-8.164l8.831 4.007-2.671 5.887-8.831-4.006 2.671-5.888zM108.034 175.748c-.873-.396-1.844-.524-2.79-.368-.947.155-1.825.588-2.526 1.244-.7.655-1.19 1.503-1.408 2.437-.219.934-.155 1.911.182 2.809.338.897.934 1.675 1.713 2.234.779.559 1.707.874 2.665.906.959.032 1.905-.221 2.72-.727.814-.506 1.461-1.242 1.857-2.116.531-1.171.575-2.505.123-3.709-.452-1.203-1.364-2.178-2.536-2.71zm-2.671 5.888c-.291-.132-.536-.348-.705-.619-.168-.272-.253-.587-.242-.907.01-.319.116-.628.302-.888s.445-.458.745-.571c.299-.112.625-.134.936-.061.311.073.594.236.812.47.219.233.363.526.415.842.052.315.009.639-.123.93-.177.39-.502.694-.903.845-.401.151-.846.136-1.237-.041zM172.796 205.129c-.874-.396-1.845-.524-2.791-.368-.946.155-1.825.588-2.525 1.243-.701.656-1.191 1.504-1.409 2.438-.218.933-.155 1.911.183 2.809.337.897.933 1.675 1.712 2.234.779.559 1.707.874 2.665.906.959.032 1.905-.221 2.72-.727.814-.506 1.461-1.243 1.857-2.116.531-1.171.576-2.505.123-3.709-.452-1.204-1.364-2.178-2.535-2.71zm-2.671 5.888c-.291-.132-.537-.348-.706-.619-.168-.272-.253-.587-.242-.907.011-.319.116-.628.302-.888s.446-.459.745-.571c.299-.112.625-.134.936-.061.311.073.594.236.813.47.218.233.362.526.414.841.052.316.009.64-.123.931-.177.39-.502.694-.903.845-.401.151-.846.136-1.236-.041zM60.4934 14.649l-1.0791 1.2032-3.6097-3.2373c-.3191-.2862-.7388-.4339-1.1669-.4106-.428.0232-.8292.2156-1.1154.5347l-1.0791 1.2032-3.6097-3.2373c-.3191-.2862-.7388-.4339-1.1669-.4106-.428.0233-.8292.2156-1.1154.5347l-6.4747 7.2194c-.2862.3191-.4339.7388-.4106 1.1668.0233.4281.2156.8293.5347 1.1155l3.6097 3.2373-1.0791 1.2033c-.2862.3191-.4339.7388-.4106 1.1668.0233.428.2156.8293.5347 1.1155l3.6097 3.2373-8.1904 9.1325-8.4567.4484c-.2123.0124-.4201.0666-.6115.1595-.1913.0929-.3625.2227-.5036.3819L-.43305 72.9002c-.70855.7901-1.25455 1.7119-1.60683 2.713-.35228 1.0011-.50393 2.0617-.44631 3.1214.11639 2.1401 1.07815 4.1463 2.673727 5.5773L38.6907 118.843c1.5956 1.431 3.6943 2.17 5.8344 2.053 1.0596-.057 2.0976-.323 3.0545-.782.957-.459 1.8142-1.101 2.5228-1.891l56.1136-62.568c1.431-1.5955 2.169-3.6942 2.053-5.8343-.116-2.1401-1.078-4.1463-2.674-5.5773l-33.69-30.215c-1.5955-1.431-3.6942-2.1695-5.8343-2.0531-2.1401.1164-4.1463 1.0781-5.5773 2.6737zm-16.9313 4.3544l4.3164-4.8129 2.4065 2.1582-4.3165 4.8129-2.4064-2.1582zm2.6547 6.7228l8.6328-9.6258 2.4065 2.1583-8.6329 9.6258-2.4064-2.1583zM1.9734 75.0584l28.6934-31.9937 8.4567-.4484c.2123-.0125.4202-.0667.6115-.1596.1914-.0929.3625-.2226.5036-.3818l22.6612-25.2677c.8586-.9573 2.0624-1.5344 3.3464-1.6042 1.2841-.0699 2.5433.3733 3.5006 1.2318l6.0162 5.3956-18.3449 20.4548c-3.7542-.3499-7.5383.1842-11.0491 1.5596-3.5107 1.3754-6.6506 3.5539-9.168 6.3609-2.5175 2.807-4.3426 6.1646-5.3292 9.8038-.9866 3.6392-1.1072 7.4589-.3522 11.1531L13.1748 91.6174l-10.82905-9.712C1.38841 81.0468.811345 79.8431.741516 78.559c-.06983-1.284.373294-2.5432 1.231884-3.5006zm39.2961 7.0194c-3.0937-2.7746-5.2951-6.4042-6.326-10.4299-1.0308-4.0257-.8447-8.2667.5347-12.1867 1.3795-3.92 3.8903-7.3428 7.2151-9.8358 3.3248-2.4929 7.3142-3.944 11.4636-4.1696 4.1495-.2257 8.2727.7842 11.8482 2.9019 3.5756 2.1177 6.4428 5.2481 8.2392 8.9953 1.7964 3.7473 2.4413 7.9431 1.8531 12.0568-.5882 4.1138-2.3831 7.9608-5.1576 11.0544-3.7206 4.1485-8.9367 6.6491-14.501 6.9517-5.5643.3026-11.0208-1.6176-15.1693-5.3381zm11.9081 8.5087L34.8328 111.041 15.5812 93.7756l16.9852-18.9387c1.5759 4.3174 4.3537 8.0941 8.0056 10.8847 3.652 2.7905 8.0258 4.4785 12.6056 4.8649zm18.3069-42.199c-2.9333-2.6378-6.4708-4.513-10.3002-5.4602l16.9851-18.9387L97.421 41.2543 79.0762 61.7091c-1.0127-5.1486-3.6783-9.826-7.5917-13.3216zm32.3245 5.1093L47.6959 116.064c-.8586.958-2.0623 1.535-3.3464 1.605-1.284.07-2.5432-.374-3.5006-1.232l-3.6097-3.237 20.3304-22.6692c6.0704-.5442 11.7088-3.3698 15.778-7.9071 4.0693-4.5373 6.2668-10.4488 6.1495-16.5424l20.3303-22.6688 3.6096 3.2373c.957.8586 1.535 2.0624 1.604 3.3464.07 1.2841-.373 2.5433-1.232 3.5006z" fill="#8AC6D1"/><path d="M68.5334 78.306c2.3477-2.6177 3.8664-5.8728 4.3642-9.3537.4977-3.4809-.048-7.0311-1.568-10.2019-1.5201-3.1707-3.9462-5.8195-6.9717-7.6114-3.0254-1.7919-6.5143-2.6464-10.0253-2.4555-3.5111.1909-6.8867 1.4187-9.7 3.5282-2.8133 2.1094-4.9379 5.0057-6.1051 8.3225-1.1673 3.3169-1.3247 6.9055-.4525 10.3118.8723 3.4064 2.7351 6.4776 5.3528 8.8253 3.5103 3.1482 8.1274 4.773 12.8356 4.5169 4.7082-.256 9.1219-2.3719 12.27-5.8822zM44.4689 56.7239c1.9209-2.1418 4.4337-3.6659 7.2207-4.3795 2.7871-.7137 5.7231-.5849 8.437.3702 2.7138.955 5.0835 2.6933 6.8093 4.995 1.7259 2.3018 2.7305 5.0637 2.8867 7.9364.1562 2.8727-.5429 5.7272-2.009 8.2026-1.4661 2.4753-3.6333 4.4604-6.2275 5.704-2.5943 1.2437-5.4991 1.6902-8.3471 1.2829-2.8479-.4072-5.5112-1.6498-7.653-3.5706-2.872-2.5758-4.6032-6.187-4.8127-10.0392-.2095-3.8521 1.1199-7.6298 3.6956-10.5018zM14.0056 85.8495l8.6329-9.6258c.2862-.3191.4339-.7389.4106-1.1669-.0233-.428-.2156-.8292-.5347-1.1154l-7.2194-6.4747c-.3191-.2862-.7388-.4339-1.1669-.4106-.428.0233-.8292.2156-1.1154.5347l-8.63287 9.6258c-.2862.3192-.43391.7389-.41063 1.1669.02328.428.21563.8293.53474 1.1155l7.21936 6.4746c.3191.2862.7388.4339 1.1669.4106.428-.0232.8292-.2156 1.1154-.5347zm-6.14022-7.6779L14.34 70.9523l4.8129 4.3164-6.4746 7.2194-4.81292-4.3165zM27.948 89.6694c-.6403.714-1.0545 1.6017-1.1903 2.5511-.1357.9493.0131 1.9175.4277 2.7823.4145.8647 1.0762 1.5871 1.9013 2.0758.8251.4887 1.7766.7218 2.7342.6697.9576-.0521 1.8782-.3869 2.6455-.9622.7672-.5753 1.3467-1.3652 1.665-2.2698.3183-.9046.3613-1.8833.1234-2.8123s-.7459-1.7666-1.4599-2.4069c-.9573-.8586-2.2165-1.3017-3.5006-1.2319-1.284.0698-2.4878.6469-3.3463 1.6042zm4.8128 4.3165c-.2134.2379-.4926.4073-.8022.4866-.3097.0793-.636.065-.9375-.0412-.3015-.1061-.5648-.2992-.7566-.555-.1917-.2557-.3034-.5626-.3207-.8818-.0174-.3192.0603-.6363.2232-.9114.1629-.275.4037-.4956.692-.6338.2882-.1381.611-.1877.9274-.1425.3164.0452.6124.1833.8503.3967.3191.2862.5115.6875.5348 1.1155.0233.428-.1245.8478-.4107 1.1669zM75.4286 36.7276c-.6403.7139-1.0545 1.6017-1.1902 2.551-.1358.9493.0131 1.9176.4276 2.7824.4146.8647 1.0763 1.5871 1.9014 2.0758.8251.4887 1.7766.7218 2.7342.6697.9575-.0521 1.8782-.387 2.6454-.9622.7673-.5753 1.3467-1.3652 1.665-2.2698.3184-.9046.3613-1.8833.1234-2.8123-.2379-.9291-.7459-1.7667-1.4598-2.4069-.9573-.8586-2.2166-1.3018-3.5006-1.2319-1.2841.0698-2.4878.6469-3.3464 1.6042zm4.8129 4.3164c-.2134.238-.4926.4074-.8023.4866-.3097.0793-.6359.065-.9374-.0411-.3016-.1061-.5649-.2992-.7566-.555-.1918-.2557-.3034-.5626-.3208-.8818-.0173-.3192.0603-.6364.2232-.9114.1629-.275.4038-.4956.692-.6338.2883-.1382.611-.1878.9274-.1425.3165.0452.6124.1833.8504.3967.3191.2862.5115.6874.5347 1.1155.0233.428-.1244.8477-.4106 1.1668z" fill="#8AC6D1"/></svg>