<svg width="492" height="397" fill="none" xmlns="http://www.w3.org/2000/svg"><path d="M139.358 231.021l-2.247 1.408-4.226-6.741c-.373-.596-.969-1.019-1.654-1.177-.686-.157-1.406-.035-2.002.338l-2.247 1.409-4.226-6.742c-.373-.596-.968-1.019-1.654-1.176-.686-.157-1.406-.036-2.002.338l-13.483 8.451c-.596.374-1.019.969-1.176 1.655-.157.685-.036 1.405.338 2.001l4.226 6.742-2.247 1.408c-.596.374-1.02.969-1.177 1.655-.157.685-.036 1.405.338 2.001l4.226 6.742-17.0563 10.691-13.5405-3.125c-.3405-.077-.6928-.085-1.0367-.026-.3439.06-.6726.187-.9673.374L16.8704 295.28c-1.4755.925-2.7544 2.132-3.7637 3.551-1.0092 1.419-1.7291 3.023-2.1184 4.72-.7863 3.428-.1787 7.028 1.6893 10.008l45.0759 71.91c1.8679 2.98 4.8432 5.096 8.2711 5.882 1.6974.389 3.4548.441 5.172.151 1.7171-.29 3.3604-.915 4.8359-1.84l116.8535-73.249c2.98-1.868 5.096-4.843 5.882-8.271.786-3.428.179-7.028-1.689-10.008l-39.442-62.921c-1.868-2.98-4.843-5.095-8.271-5.882-3.428-.786-7.028-.178-10.008 1.69zm-28.676-.806l8.989-5.634 2.817 4.494-8.989 5.634-2.817-4.494zm1.14 11.806l17.977-11.269 2.818 4.494-17.978 11.269-2.817-4.494zm-92.1344 57.754l59.7525-37.456 13.5405 3.125c.3406.077.6929.086 1.0368.026s.6726-.187.9672-.374l47.1904-29.581c1.788-1.121 3.948-1.485 6.005-1.014 2.057.472 3.842 1.742 4.963 3.53l7.043 11.235-38.202 23.947c-5.763-2.253-11.973-3.126-18.133-2.547-6.1601.578-12.0994 2.591-17.3419 5.877-5.2425 3.286-9.6425 7.754-12.8477 13.047-3.2052 5.292-5.1264 11.262-5.6098 17.43l-38.202 23.947-12.6776-20.225c-1.1208-1.788-1.4854-3.948-1.0136-6.005.4717-2.057 1.7413-3.842 3.5292-4.962zm58.7944 28.878c-3.6218-5.778-5.4489-12.5-5.2503-19.316.1986-6.816 2.414-13.421 6.366-18.978 3.952-5.557 9.4632-9.817 15.8366-12.242 6.3737-2.425 13.3227-2.906 19.9697-1.381 6.646 1.524 12.691 4.985 17.371 9.946 4.679 4.96 7.783 11.196 8.918 17.92 1.135 6.724.25 13.634-2.542 19.855-2.792 6.222-7.366 11.476-13.144 15.097-7.747 4.857-17.107 6.437-26.02 4.393-8.9128-2.045-16.6483-7.546-21.505-15.294zm14.9248 18.816l-38.2021 23.947-22.5379-35.955 35.3706-22.172c.5289 7.524 3.1983 14.739 7.6933 20.795 4.4951 6.056 10.6282 10.7 17.6761 13.385zm47.9962-58.257c-3.431-5.49-8.16-10.05-13.77-13.279l35.37-22.172 22.538 35.955-38.202 23.946c.736-8.579-1.348-17.164-5.936-24.45zm48.666 22.707L73.2153 385.167c-1.788 1.121-3.948 1.486-6.0048 1.014-2.0567-.472-3.8419-1.741-4.9626-3.529l-4.2259-6.742 42.337-26.538c9.82 1.893 19.993-.009 28.467-5.321 8.474-5.311 14.619-13.639 17.195-23.303l42.337-26.538 4.226 6.742c1.121 1.788 1.486 3.948 1.014 6.004-.472 2.057-1.741 3.842-3.529 4.963z" fill="#8AC6D1"/><path d="M123.19 335.06c4.889-3.064 8.759-7.51 11.122-12.774 2.362-5.265 3.111-11.111 2.15-16.801-.96-5.689-3.586-10.966-7.546-15.163-3.959-4.198-9.074-7.126-14.698-8.416-5.624-1.29-11.504-.884-16.8974 1.168-5.3928 2.052-10.0562 5.657-13.4002 10.359-3.344 4.703-5.2186 10.291-5.3866 16.059-.1681 5.767 1.378 11.455 4.4426 16.344 4.1094 6.556 10.6549 11.211 18.1966 12.941 7.541 1.729 15.461.393 22.017-3.717zm-28.1723-44.943c4.0001-2.508 8.6543-3.773 13.3723-3.635 4.719.137 9.292 1.671 13.139 4.407 3.847 2.736 6.797 6.551 8.476 10.964 1.678 4.412 2.011 9.223.956 13.825-1.056 4.601-3.452 8.786-6.886 12.026-3.434 3.239-7.752 5.388-12.407 6.174-4.655.786-9.438.173-13.7455-1.76-4.3072-1.933-7.9444-5.099-10.4518-9.099-3.3623-5.364-4.4561-11.844-3.0408-18.014 1.4154-6.171 5.2239-11.526 10.5878-14.888zM33.7738 322.246l17.9775-11.269c.596-.373 1.0191-.968 1.1764-1.654.1573-.685.0357-1.405-.3379-2.001l-8.4517-13.484c-.3736-.596-.9686-1.019-1.6542-1.176-.6856-.157-1.4056-.036-2.0016.338l-17.9774 11.269c-.596.373-1.0192.969-1.1765 1.654-.1572.686-.0357 1.406.3379 2.002l8.4517 13.483c.3736.596.9687 1.019 1.6543 1.176.6856.157 1.4056.036 2.0015-.338zm-6.2045-14.891l13.4831-8.452 5.6344 8.989-13.483 8.451-5.6345-8.988zM54.0315 334.589c-1.3333.836-2.3889 2.048-3.0332 3.484-.6443 1.436-.8484 3.03-.5865 4.582.262 1.552.9781 2.991 2.058 4.136 1.0799 1.144 2.4749 1.943 4.0087 2.295 1.5339.352 3.1376.241 4.6083-.319 1.4708-.559 2.7426-1.543 3.6546-2.825.9121-1.282 1.4233-2.806 1.4691-4.379.0459-1.573-.3758-3.125-1.2116-4.458-1.1208-1.788-2.9059-3.058-4.9627-3.529-2.0568-.472-4.2167-.107-6.0047 1.013zm5.6345 8.989c-.4444.279-.9615.419-1.4859.404-.5243-.015-1.0323-.186-1.4598-.49s-.7552-.728-.9417-1.218c-.1866-.49-.2235-1.025-.1063-1.536.1173-.511.3836-.976.7651-1.336.3816-.36.8613-.599 1.3785-.686.5173-.088 1.0488-.02 1.5274.195.4785.215.8827.567 1.1613 1.011.3735.596.4951 1.316.3378 2.002-.1572.685-.5804 1.28-1.1764 1.654zM152.907 272.61c-1.333.836-2.389 2.048-3.033 3.484-.644 1.436-.848 3.03-.586 4.582s.978 2.991 2.058 4.135c1.08 1.145 2.475 1.944 4.008 2.296 1.534.351 3.138.241 4.609-.319 1.47-.56 2.742-1.543 3.654-2.825.912-1.283 1.424-2.807 1.469-4.38.046-1.573-.375-3.124-1.211-4.457-1.121-1.788-2.906-3.058-4.963-3.53-2.057-.471-4.217-.107-6.005 1.014zm5.635 8.989c-.445.278-.962.419-1.486.404-.524-.016-1.032-.186-1.46-.49-.427-.304-.755-.728-.942-1.218-.186-.491-.223-1.025-.106-1.536.117-.512.384-.977.765-1.337.382-.36.862-.598 1.379-.686.517-.087 1.049-.019 1.527.196.479.215.883.566 1.161 1.011.374.596.496 1.316.338 2.001-.157.686-.58 1.281-1.176 1.655zM317.358 128.021l-2.247 1.408-4.226-6.741c-.373-.596-.969-1.02-1.654-1.177-.686-.157-1.406-.036-2.002.338l-2.247 1.409-4.226-6.742c-.373-.596-.968-1.019-1.654-1.176-.686-.158-1.406-.036-2.002.338l-13.483 8.451c-.596.374-1.019.969-1.176 1.655-.157.685-.036 1.405.338 2.001l4.226 6.742-2.247 1.408c-.596.374-1.02.969-1.177 1.654-.157.686-.036 1.406.338 2.002l4.226 6.742-17.056 10.691-13.541-3.125c-.34-.077-.693-.085-1.037-.026-.343.06-.672.187-.967.374L194.87 192.28c-1.475.925-2.754 2.132-3.763 3.551-1.01 1.419-1.729 3.023-2.119 4.72-.786 3.428-.178 7.028 1.69 10.008l45.075 71.91c1.868 2.98 4.844 5.096 8.272 5.882 1.697.389 3.454.44 5.172.151 1.717-.29 3.36-.915 4.835-1.84l116.854-73.249c2.98-1.868 5.096-4.843 5.882-8.271.786-3.428.179-7.028-1.689-10.008l-39.442-62.921c-1.868-2.98-4.843-5.095-8.271-5.882-3.428-.786-7.028-.178-10.008 1.69zm-28.676-.806l8.989-5.634 2.817 4.494-8.989 5.634-2.817-4.494zm1.14 11.806l17.977-11.269 2.818 4.494-17.978 11.269-2.817-4.494zm-92.134 57.753l59.752-37.455 13.541 3.125c.34.077.692.086 1.036.026.344-.06.673-.187.968-.374l47.19-29.581c1.788-1.121 3.948-1.485 6.005-1.014 2.057.472 3.842 1.742 4.963 3.53l7.043 11.235-38.202 23.947c-5.763-2.253-11.973-3.126-18.133-2.548-6.16.579-12.099 2.591-17.342 5.878-5.242 3.286-9.642 7.754-12.848 13.047-3.205 5.292-5.126 11.262-5.609 17.43l-38.202 23.947-12.678-20.225c-1.121-1.788-1.485-3.948-1.014-6.005.472-2.057 1.742-3.842 3.53-4.963zm58.794 28.879c-3.622-5.778-5.449-12.5-5.25-19.316.198-6.816 2.414-13.421 6.366-18.978 3.952-5.557 9.463-9.817 15.836-12.242 6.374-2.425 13.323-2.906 19.97-1.381 6.646 1.524 12.691 4.985 17.371 9.946 4.679 4.96 7.783 11.196 8.918 17.92 1.135 6.724.25 13.634-2.542 19.855-2.792 6.222-7.366 11.476-13.144 15.097-7.747 4.857-17.107 6.437-26.02 4.393-8.913-2.045-16.648-7.546-21.505-15.294zm14.925 18.816l-38.202 23.947-22.538-35.955 35.37-22.172c.529 7.524 3.199 14.739 7.694 20.795 4.495 6.056 10.628 10.7 17.676 13.385zm47.996-58.257c-3.431-5.49-8.16-10.05-13.77-13.279l35.37-22.172 22.538 35.955-38.202 23.946c.736-8.579-1.348-17.164-5.936-24.45zm48.666 22.707l-116.854 73.248c-1.788 1.121-3.948 1.486-6.004 1.014-2.057-.472-3.842-1.741-4.963-3.529l-4.226-6.742 42.337-26.538c9.82 1.892 19.993-.009 28.467-5.321 8.474-5.311 14.619-13.639 17.195-23.303l42.337-26.538 4.226 6.742c1.121 1.788 1.486 3.947 1.014 6.004-.472 2.057-1.741 3.842-3.529 4.963z" fill="#8AC6D1"/><path d="M301.19 232.06c4.889-3.065 8.759-7.51 11.122-12.774 2.362-5.265 3.111-11.111 2.15-16.801-.96-5.689-3.586-10.966-7.546-15.163-3.959-4.198-9.074-7.126-14.698-8.416-5.624-1.29-11.504-.884-16.897 1.168-5.393 2.052-10.057 5.657-13.401 10.359-3.344 4.703-5.218 10.291-5.386 16.058-.168 5.768 1.378 11.456 4.442 16.345 4.11 6.556 10.655 11.211 18.197 12.941 7.541 1.729 15.461.393 22.017-3.717zm-28.172-44.944c4-2.507 8.654-3.772 13.372-3.634 4.719.137 9.292 1.671 13.139 4.407 3.847 2.736 6.797 6.551 8.476 10.964 1.678 4.412 2.011 9.223.956 13.825-1.056 4.601-3.452 8.786-6.886 12.026-3.434 3.239-7.752 5.388-12.407 6.174-4.655.785-9.438.173-13.746-1.76-4.307-1.933-7.944-5.099-10.451-9.099-3.363-5.364-4.456-11.844-3.041-18.014 1.415-6.171 5.224-11.526 10.588-14.889zM211.774 219.246l17.977-11.269c.596-.373 1.019-.968 1.177-1.654.157-.686.035-1.405-.338-2.001l-8.452-13.484c-.373-.596-.969-1.019-1.654-1.176-.686-.157-1.406-.036-2.002.338l-17.977 11.269c-.596.373-1.019.969-1.177 1.654-.157.686-.035 1.406.338 2.002l8.452 13.483c.374.596.969 1.019 1.654 1.176.686.157 1.406.036 2.002-.338zm-6.205-14.891l13.483-8.452 5.635 8.989-13.483 8.451-5.635-8.988zM232.032 231.589c-1.334.836-2.389 2.048-3.034 3.484-.644 1.436-.848 3.03-.586 4.582s.978 2.991 2.058 4.136c1.08 1.144 2.475 1.943 4.009 2.295 1.533.352 3.137.241 4.608-.319 1.471-.559 2.742-1.543 3.654-2.825.912-1.283 1.424-2.807 1.47-4.38.045-1.573-.376-3.124-1.212-4.457-1.121-1.788-2.906-3.058-4.963-3.529-2.057-.472-4.217-.108-6.004 1.013zm5.634 8.989c-.444.279-.962.419-1.486.404-.524-.015-1.032-.186-1.46-.49-.427-.304-.755-.728-.941-1.218-.187-.49-.224-1.025-.107-1.536.118-.511.384-.977.765-1.336.382-.36.862-.599 1.379-.686.517-.088 1.049-.02 1.527.195.479.215.883.567 1.162 1.011.373.596.495 1.316.337 2.002-.157.685-.58 1.28-1.176 1.654zM330.907 169.61c-1.333.836-2.389 2.048-3.033 3.484-.644 1.436-.848 3.03-.586 4.582.262 1.551.978 2.991 2.058 4.135 1.08 1.145 2.475 1.944 4.008 2.296 1.534.351 3.138.24 4.609-.319 1.47-.56 2.742-1.543 3.654-2.825.912-1.283 1.424-2.807 1.469-4.38.046-1.573-.375-3.124-1.211-4.457-1.121-1.788-2.906-3.058-4.963-3.53-2.057-.471-4.217-.107-6.005 1.014zm5.635 8.989c-.445.278-.962.419-1.486.403-.524-.015-1.032-.185-1.46-.489-.427-.304-.755-.728-.942-1.218-.186-.491-.223-1.025-.106-1.537.117-.511.384-.976.765-1.336.382-.36.862-.598 1.379-.686.517-.087 1.049-.019 1.527.196.479.214.883.566 1.161 1.011.374.596.496 1.316.338 2.001-.157.686-.58 1.281-1.176 1.655zM495.358 25.0205l-2.247 1.4086-4.226-6.7415c-.373-.596-.969-1.0192-1.654-1.1764-.686-.1573-1.406-.0357-2.002.3378l-2.247 1.4087-4.226-6.7416c-.373-.596-.968-1.0191-1.654-1.1764-.686-.1573-1.406-.0357-2.002.3379l-13.483 8.4517c-.596.3736-1.019.9686-1.176 1.6542-.157.6856-.036 1.4056.338 2.0016l4.226 6.7415-2.247 1.4087c-.596.3736-1.02.9686-1.177 1.6542-.157.6856-.036 1.4056.338 2.0016l4.226 6.7415-17.056 10.6914-13.541-3.1251c-.34-.0766-.693-.0853-1.037-.0255-.343.0598-.672.1869-.967.3739L372.87 89.2801c-1.475.925-2.754 2.1314-3.763 3.5506-1.01 1.4192-1.729 3.0232-2.119 4.7206-.786 3.4277-.178 7.0277 1.69 10.0077l45.075 71.91c1.868 2.98 4.844 5.096 8.272 5.882 1.697.389 3.454.44 5.172.151 1.717-.29 3.36-.915 4.835-1.84l116.854-73.249c2.98-1.868 5.096-4.843 5.882-8.271.786-3.4278.179-7.0278-1.689-10.0077l-39.442-62.921c-1.868-2.9799-4.843-5.0958-8.271-5.8821-3.428-.7863-7.028-.1786-10.008 1.6893zm-28.676-.8055l8.989-5.6345 2.817 4.4944-8.989 5.6345-2.817-4.4944zm1.14 11.806l17.977-11.269 2.818 4.4944-17.978 11.269-2.817-4.4944zm-92.134 57.7535l59.752-37.4553 13.541 3.1252c.34.0766.692.0853 1.036.0255.344-.0598.673-.1869.968-.374l47.19-29.581c1.788-1.1208 3.948-1.4854 6.005-1.0136s3.842 1.7413 4.963 3.5292l7.043 11.2359-38.202 23.9466c-5.763-2.2533-11.973-3.1257-18.133-2.5475-6.16.5782-12.099 2.591-17.342 5.8772-5.242 3.2862-9.642 7.7545-12.848 13.0469-3.205 5.2924-5.126 11.2619-5.609 17.4304l-38.202 23.947-12.678-20.225c-1.121-1.788-1.485-3.948-1.014-6.0048.472-2.0568 1.742-3.8419 3.53-4.9627zm58.794 28.8785c-3.622-5.778-5.449-12.5-5.25-19.316.198-6.8163 2.414-13.4206 6.366-18.9778 3.952-5.5572 9.463-9.8176 15.836-12.2426 6.374-2.425 13.323-2.9056 19.97-1.3811 6.646 1.5246 12.691 4.9859 17.371 9.9461 4.679 4.9603 7.783 11.1967 8.918 17.9208 1.135 6.7236.25 13.6336-2.542 19.8546-2.792 6.222-7.366 11.476-13.144 15.097-7.747 4.857-17.107 6.437-26.02 4.393-8.913-2.045-16.648-7.546-21.505-15.294zm14.925 18.816l-38.202 23.947-22.538-35.955 35.37-22.172c.529 7.524 3.199 14.739 7.694 20.795 4.495 6.056 10.628 10.7 17.676 13.385zm47.996-58.2573c-3.431-5.4894-8.16-10.05-13.77-13.2792l35.37-22.1717 22.538 35.9549-38.202 23.9463c.736-8.5789-1.348-17.1637-5.936-24.4503zm48.666 22.7073l-116.854 73.248c-1.788 1.121-3.948 1.486-6.004 1.014-2.057-.472-3.842-1.741-4.963-3.529l-4.226-6.742 42.337-26.538c9.82 1.892 19.993-.009 28.467-5.321 8.474-5.311 14.619-13.639 17.195-23.303l42.337-26.538 4.226 6.7415c1.121 1.788 1.486 3.948 1.014 6.0045-.472 2.057-1.741 3.842-3.529 4.963z" fill="#8AC6D1"/><path d="M479.19 129.06c4.889-3.065 8.759-7.51 11.122-12.774 2.362-5.265 3.111-11.111 2.15-16.8007-.96-5.6896-3.586-10.9666-7.546-15.1638-3.959-4.1971-9.074-7.1259-14.698-8.4159-5.624-1.29-11.504-.8833-16.897 1.1686-5.393 2.0519-10.057 5.6569-13.401 10.3592-3.344 4.7022-5.218 10.2904-5.386 16.0576-.168 5.768 1.378 11.456 4.442 16.345 4.11 6.556 10.655 11.211 18.197 12.941 7.541 1.729 15.461.393 22.017-3.717zm-28.172-44.9435c4-2.5074 8.654-3.7724 13.372-3.6349 4.719.1375 9.292 1.6713 13.139 4.4073 3.847 2.736 6.797 6.5514 8.476 10.9638 1.678 4.4123 2.011 9.2233.956 13.8253-1.056 4.601-3.452 8.786-6.886 12.026-3.434 3.239-7.752 5.388-12.407 6.174-4.655.785-9.438.173-13.746-1.76-4.307-1.933-7.944-5.099-10.451-9.099-3.363-5.364-4.456-11.844-3.041-18.0145 1.415-6.1703 5.224-11.5257 10.588-14.888zM389.774 116.246l17.977-11.269c.596-.373 1.019-.968 1.177-1.654.157-.686.035-1.405-.338-2.001l-8.452-13.4835c-.373-.596-.969-1.0192-1.654-1.1765-.686-.1572-1.406-.0357-2.002.3379l-17.977 11.269c-.596.3736-1.019.9686-1.177 1.6542-.157.6859-.035 1.4059.338 2.0019l8.452 13.483c.374.596.969 1.019 1.654 1.176.686.157 1.406.036 2.002-.338zm-6.205-14.891l13.483-8.4521 5.635 8.9891-13.483 8.451-5.635-8.988zM410.032 128.589c-1.334.836-2.389 2.048-3.034 3.484-.644 1.436-.848 3.03-.586 4.582s.978 2.991 2.058 4.136c1.08 1.144 2.475 1.943 4.009 2.295 1.533.352 3.137.241 4.608-.319 1.471-.559 2.742-1.543 3.654-2.825.912-1.283 1.424-2.807 1.47-4.38.045-1.573-.376-3.124-1.212-4.457-1.121-1.788-2.906-3.058-4.963-3.529-2.057-.472-4.217-.108-6.004 1.013zm5.634 8.989c-.444.279-.962.419-1.486.404-.524-.015-1.032-.186-1.46-.49-.427-.304-.755-.728-.941-1.218-.187-.49-.224-1.025-.107-1.536.118-.511.384-.977.765-1.336.382-.36.862-.599 1.379-.686.517-.088 1.049-.02 1.527.195.479.215.883.567 1.162 1.011.373.596.495 1.316.337 2.002-.157.685-.58 1.28-1.176 1.654z" fill="#8AC6D1"/></svg>