<svg width="45" height="45" fill="none" xmlns="http://www.w3.org/2000/svg"><path d="M22.5 0C10.0755 0 0 10.0755 0 22.5S10.0755 45 22.5 45 45 34.9245 45 22.5 34.9245 0 22.5 0zm10.2732 17.5431c.01.2214.0148.4439.0148.6674 0 6.8243-5.1945 14.6936-14.6939 14.6939h.0004-.0004c-2.9165 0-5.6305-.8549-7.916-2.3198.4041.0477.8154.0714 1.2319.0714 2.4197 0 4.6465-.8254 6.4143-2.2107-2.2608-.0419-4.1669-1.535-4.8247-3.587.3148.0604.6386.0934.9705.0934.4714 0 .928-.0635 1.362-.182-2.3631-.4731-4.1432-2.5615-4.1432-5.0623 0-.0233 0-.0443.0007-.0659.6959.3869 1.4917.6197 2.339.6458-1.3866-.9253-2.2982-2.507-2.2982-4.2988 0-.9462.2558-1.8326.6994-2.5958 2.5467 3.1249 6.3528 5.18 10.645 5.396-.0885-.3784-.1342-.7725-.1342-1.1776 0-2.851 2.313-5.1639 5.165-5.1639 1.4855 0 2.8272.6279 3.7696 1.6318 1.1766-.2321 2.2814-.6619 3.2795-1.2535-.3863 1.2054-1.2048 2.2168-2.2711 2.8565 1.0447-.125 2.0403-.4021 2.9656-.8134-.6911 1.0358-1.5676 1.9456-2.576 2.6745z" fill="#8AC6D1"/></svg>