<svg width="45" height="45" fill="none" xmlns="http://www.w3.org/2000/svg"><path d="M22.5 45C34.9264 45 45 34.9264 45 22.5S34.9264 0 22.5 0 0 10.0736 0 22.5 10.0736 45 22.5 45z" fill="#4D76A1"/><path fill-rule="evenodd" clip-rule="evenodd" d="M21.6501 32.3682h1.766s.5335-.0586.8058-.3522c.2507-.2695.2426-.7756.2426-.7756s-.0344-2.3696 1.0653-2.7186c1.0842-.3437 2.4763 2.2902 3.9519 3.3029 1.1158.7665 1.9637.5984 1.9637.5984l3.9455-.0549s2.064-.1271 1.0853-1.7499c-.0802-.1328-.5699-1.2005-2.9335-3.3944-2.4739-2.2962-2.1426-1.9248.8374-5.8967 1.8149-2.419 2.5405-3.8958 2.3139-4.5283-.2162-.6024-1.551-.4432-1.551-.4432l-4.4424.0277s-.3293-.0449-.5736.1011c-.2386.1432-.3922.4769-.3922.4769s-.7031 1.8718-1.6408 3.4637c-1.9782 3.3591-2.7691 3.5364-3.0924 3.3278-.752-.4861-.5643-1.9529-.5643-2.9949 0-3.2552.4937-4.6124-.9614-4.9638-.4829-.1167-.8383-.1937-2.0732-.2061-1.5851-.0165-2.9267.0048-3.6864.377-.5054.2474-.8952.7989-.6578.8306.2936.0393.9586.1793 1.3112.6594.4552.6193.4392 2.0102.4392 2.0102s.2615 3.832-.6109 4.3081c-.5988.3265-1.4202-.3401-3.1838-3.3876-.9036-1.561-1.5859-3.2865-1.5859-3.2865s-.1315-.3224-.3662-.4949c-.2847-.209-.6826-.2755-.6826-.2755l-4.22141.0276s-.63372.0177-.86634.2932c-.20696.2451-.01645.7521-.01645.7521s3.3049 7.7321 7.047 11.6286c3.4313 3.5724 7.3278 3.3378 7.3278 3.3378z" fill="#fff"/></svg>